<svg width="170" height="32" viewBox="0 0 170 32" fill="none" xmlns="http://www.w3.org/2000/svg">
  <path
    d="M18.094 31.2724H6.73619C2.86021 31.2801 0.627087 29.0901 0.623191 25.2591L0.603714 8.07835C0.603714 8.06295 4.79108 14.4454 18.094 14.4454C22.8192 14.4415 26.664 17.1741 26.664 22.6315C26.664 28.0889 22.8231 31.2685 18.094 31.2724Z"
    fill="#88B7F7" />
  <path
    d="M14.3197 0.801857L7.60537 0.801872C3.75426 0.794172 0.607584 3.79286 0.603714 7.62364V24.5489C0.603714 24.5643 1.10207 17.1741 14.3197 17.1741C18.8917 17.1741 22.9987 13.5359 23.0064 8.988C23.0103 4.44014 18.8917 0.801857 14.3197 0.801857Z"
    fill="#116EEE" />
  <path fill-rule="evenodd" clip-rule="evenodd"
    d="M34.2349 7.45662L34.2481 24.3046L43.1285 24.299C43.8972 24.3125 44.6625 24.1945 45.3915 23.9501C45.9974 23.7475 46.5529 23.4177 47.0208 22.9827C47.4469 22.5764 47.7752 22.0785 47.9807 21.5268C48.1974 20.937 48.3047 20.3127 48.2975 19.6844C48.3203 18.7728 48.0565 17.8771 47.5432 17.1234C47.0166 16.3932 46.2728 15.848 45.4179 15.5657V15.5148C46.0644 15.1914 46.6011 14.6843 46.9605 14.057C47.3286 13.3918 47.5141 12.6409 47.4979 11.8808C47.4979 10.5934 47.0755 9.53417 46.2307 8.70315C45.3858 7.87213 44.1198 7.45662 42.4326 7.45662H34.2349ZM38.5082 14.074V11.315H41.7254C42.3402 11.315 42.7526 11.4489 42.9625 11.7167C43.1795 12.0001 43.2914 12.35 43.2793 12.7068C43.2885 13.0626 43.1617 13.4086 42.9248 13.6742C42.6872 13.9407 42.2874 14.074 41.7254 14.074H38.5082ZM38.5082 20.4368V17.4195L42.2534 17.4214C42.8154 17.4195 43.2322 17.5703 43.5056 17.8702C43.7767 18.1604 43.9247 18.5443 43.9186 18.9413C43.9269 19.3277 43.7927 19.7037 43.5415 19.9974C43.2963 20.2897 42.8663 20.4368 42.2516 20.4368H38.5082Z"
    fill="#116EEE" />
  <path
    d="M62.611 11.5621H58.6508V18.1757C58.6508 19.1878 58.4232 19.9176 57.9681 20.3651C57.4708 20.7964 56.8347 21.0338 56.1765 21.0338C55.5183 21.0338 54.8822 20.7964 54.385 20.3651C53.9286 19.9182 53.6986 19.1903 53.6986 18.1757V11.5753H49.7383V18.1757C49.7199 19.1389 49.8771 20.0975 50.2022 21.0044C50.4812 21.7676 50.9278 22.4584 51.5091 23.0261C52.0861 23.5764 52.7796 23.9895 53.5383 24.2349C54.3909 24.51 55.2826 24.6444 56.1784 24.6328C57.0755 24.6431 57.9679 24.5029 58.8186 24.2179C59.585 23.9664 60.2839 23.5431 60.8617 22.9803C61.4396 22.4175 61.8811 21.73 62.1527 20.9705C62.4741 20.0699 62.6293 19.1185 62.611 18.1625V11.5621Z"
    fill="#116EEE" />
  <path
    d="M70.9962 14.9447C71.0736 15.0623 71.1253 15.1949 71.1482 15.3337L74.999 15.3375C74.9802 14.7802 74.8399 14.2338 74.5879 13.7364C74.3303 13.2248 73.9656 12.7746 73.5187 12.4164C73.022 12.0271 72.4592 11.7307 71.8572 11.5413C71.1492 11.3183 70.41 11.2101 69.6678 11.2207C68.9218 11.2116 68.179 11.3204 67.467 11.5432C66.8563 11.7335 66.2883 12.0402 65.7943 12.4465C65.345 12.8182 64.9788 13.2802 64.7194 13.8024C64.4628 14.331 64.3336 14.9122 64.3422 15.4997C64.3409 16.3395 64.5119 17.0002 64.8551 17.4817C65.1854 17.9495 65.625 18.3295 66.1356 18.5887C66.6616 18.8484 67.2235 19.0276 67.8027 19.1205L69.4622 19.4034C69.8968 19.4703 70.3251 19.5731 70.7427 19.7108C71.0859 19.8314 71.2575 20.037 71.2575 20.3293C71.2662 20.4785 71.241 20.6278 71.1839 20.7659C71.1267 20.9041 71.0391 21.0275 70.9275 21.127C70.7069 21.3175 70.2826 21.4118 69.6489 21.4118C68.5954 21.413 68.0592 21.0786 68.0403 20.4085H64.1461C64.153 20.9994 64.2976 21.5806 64.5685 22.1058C64.8423 22.622 65.2252 23.0724 65.6906 23.4258C66.2112 23.8223 66.8007 24.1189 67.4293 24.3009C68.17 24.5149 68.9383 24.6185 69.7093 24.6083C70.4857 24.6166 71.2588 24.5072 72.0024 24.2839C72.6357 24.0962 73.2294 23.7945 73.7544 23.3938C74.2251 23.0335 74.6081 22.5712 74.8746 22.0416C75.1406 21.5098 75.2758 20.9221 75.2687 20.3274C75.2687 19.4863 75.0971 18.8257 74.7539 18.3454C74.4253 17.8768 73.9861 17.4966 73.4753 17.2384C72.9516 16.9765 72.3915 16.7946 71.8139 16.6991C71.2154 16.5947 70.6616 16.5004 70.1524 16.4162C69.7185 16.3493 69.2908 16.2465 68.8738 16.1088C68.5325 15.9881 68.359 15.7826 68.359 15.4903C68.3554 15.3466 68.3815 15.2038 68.4357 15.0708C68.4899 14.9377 68.571 14.8173 68.674 14.7171C68.8839 14.5109 69.2447 14.4078 69.7564 14.4078C70.0878 14.3943 70.4158 14.4789 70.6993 14.6511C70.8178 14.7271 70.9189 14.8271 70.9962 14.9447Z"
    fill="#116EEE" />
  <path
    d="M89.6576 11.5376H85.6974L85.7106 18.1455C85.7124 19.1601 85.4824 19.8899 85.0279 20.3369C84.5301 20.767 83.8942 21.0037 83.2363 21.0037C82.5785 21.0037 81.9426 20.767 81.4448 20.3369C80.9884 19.8899 80.7584 19.162 80.7584 18.1474V11.547H76.7981V18.1474C76.7799 19.1107 76.9371 20.0692 77.262 20.9761C77.5376 21.7419 77.9816 22.436 78.5614 23.0072C79.1377 23.5541 79.8291 23.9652 80.5849 24.2104C81.4375 24.4855 82.3292 24.6199 83.225 24.6083C84.1221 24.6186 85.0145 24.4784 85.8652 24.1934C86.6316 23.9419 87.3305 23.5186 87.9083 22.9558C88.4862 22.393 88.9278 21.7055 89.1993 20.946C89.5207 20.0454 89.6759 19.094 89.6576 18.138V11.5376Z"
    fill="#116EEE" />
  <path
    d="M104.578 11.5262H100.618L100.622 18.1342C100.623 19.1463 100.396 19.8761 99.9392 20.3237C99.4419 20.7549 98.8058 20.9923 98.1476 20.9923C97.4894 20.9923 96.8533 20.7549 96.3561 20.3237C95.8997 19.8786 95.6715 19.1494 95.6715 18.1361V11.5357H91.7113V18.1361C91.692 19.0993 91.8486 20.0579 92.1733 20.9648C92.4523 21.7279 92.8989 22.4188 93.4802 22.9864C94.0557 23.5367 94.7471 23.951 95.5037 24.199C96.3566 24.4727 97.2482 24.6064 98.1438 24.5951C99.0409 24.6071 99.9335 24.4675 100.784 24.1821C101.551 23.9306 102.25 23.5071 102.828 22.9439C103.406 22.3808 103.847 21.6928 104.118 20.9328C104.441 20.0331 104.597 19.0822 104.578 18.1267V11.5262Z"
    fill="#116EEE" />
  <path d="M113.268 22.8468V7.47727H111.372V24.4566H121.207V22.8468H113.268Z" fill="#116EEE" />
  <path fill-rule="evenodd" clip-rule="evenodd"
    d="M127.337 24.6771C130.689 24.6771 132.916 22.3176 132.916 18.7674C132.916 15.2392 130.689 12.8798 127.337 12.8798C124.007 12.8798 121.78 15.2392 121.78 18.7674C121.78 22.3176 124.007 24.6771 127.337 24.6771ZM127.337 23.1776C125.11 23.1776 123.632 21.4135 123.632 18.7674C123.632 16.1213 125.11 14.3572 127.337 14.3572C129.586 14.3572 131.063 16.1213 131.063 18.7674C131.063 21.4135 129.586 23.1776 127.337 23.1776Z"
    fill="#116EEE" />
  <path fill-rule="evenodd" clip-rule="evenodd"
    d="M137.848 22.9571H141.906C144.375 22.9571 146.029 24.1479 146.029 25.934C146.029 28.2273 143.626 29.7488 140.009 29.7488C136.481 29.7488 134.144 28.4699 134.144 26.5294C134.144 25.4268 134.849 24.5448 136.04 24.0597V24.0156C135.136 23.5966 134.607 22.913 134.607 22.0089C134.607 20.9946 135.312 20.1787 136.503 19.7818V19.7376C135.621 19.032 135.114 18.0397 135.114 16.8269C135.114 14.4454 137.098 12.8798 140.031 12.8798C140.759 12.8798 141.42 12.968 142.038 13.1444C142.325 11.6449 143.67 10.6526 145.61 10.6526V12.2403C144.353 12.2403 143.449 12.7695 143.162 13.6075C144.353 14.291 145.059 15.4156 145.059 16.8269C145.059 19.2305 143.074 20.8182 140.097 20.8182C139.127 20.8182 138.267 20.6417 137.539 20.333C136.679 20.5094 136.15 21.0166 136.15 21.7443C136.15 22.472 136.834 22.9571 137.848 22.9571ZM143.295 16.849C143.295 15.2172 142.016 14.1367 140.097 14.1367C138.179 14.1367 136.9 15.2172 136.9 16.849C136.9 18.4807 138.179 19.5612 140.097 19.5612C142.016 19.5612 143.295 18.4807 143.295 16.849ZM135.842 26.3309C135.842 27.5878 137.517 28.4037 140.009 28.4037C142.545 28.4037 144.221 27.4555 144.221 26.0442C144.221 25.074 143.317 24.4125 141.928 24.4125H138.157C136.768 24.4125 135.842 25.1843 135.842 26.3309Z"
    fill="#116EEE" />
  <path fill-rule="evenodd" clip-rule="evenodd"
    d="M152.404 24.6771C155.755 24.6771 157.982 22.3176 157.982 18.7674C157.982 15.2392 155.755 12.8798 152.404 12.8798C149.074 12.8798 146.847 15.2392 146.847 18.7674C146.847 22.3176 149.074 24.6771 152.404 24.6771ZM152.404 23.1776C150.176 23.1776 148.699 21.4135 148.699 18.7674C148.699 16.1213 150.176 14.3572 152.404 14.3572C154.653 14.3572 156.13 16.1213 156.13 18.7674C156.13 21.4135 154.653 23.1776 152.404 23.1776Z"
    fill="#116EEE" />
  <path
    d="M169.155 21.2812C169.155 23.332 167.215 24.6771 164.304 24.6771C161.437 24.6771 159.497 23.1776 159.409 20.9505L161.151 20.7961C161.217 22.3617 162.452 23.3981 164.304 23.3981C166.156 23.3981 167.391 22.6043 167.391 21.4135C167.391 19.8479 165.737 19.5171 163.973 19.2084C161.989 18.8556 159.806 18.3925 159.806 16.0992C159.806 14.1587 161.614 12.8798 164.304 12.8798C166.95 12.8798 168.758 14.3131 168.847 16.5182L167.105 16.6505C167.038 15.151 165.936 14.1587 164.304 14.1587C162.672 14.1587 161.57 14.8864 161.57 16.011C161.57 17.2679 163.047 17.5766 164.701 17.8633C166.774 18.2382 169.155 18.7454 169.155 21.2812Z"
    fill="#116EEE" />
</svg>