<svg width="120" height="121" viewBox="0 0 120 121" fill="none" xmlns="http://www.w3.org/2000/svg">
<g clip-path="url(#clip0)">
<path fill-rule="evenodd" clip-rule="evenodd" d="M45.6881 25.4114C16.1315 -28.6834 -19.0031 33.5188 12.1688 83.738C61.861 154.359 137.956 90.9954 114.684 49.8671C91.4113 8.73874 51.9967 36.9575 45.6881 25.4114Z" fill="#F2F7FD"/>
<path d="M44.3749 35.5L65.5423 32.5022C70.1555 32.3992 74.0361 35.8836 74.3539 40.4142C74.7193 45.6233 70.2707 49.922 64.9856 49.4669L44.3749 49.0503C44.3323 48.5775 44.2934 48.1186 44.258 47.6722L24.7296 46.93C21.8322 46.6255 19.7302 44.0298 20.0347 41.1323C20.3159 38.4577 22.564 36.4227 25.2534 36.4087L44.2549 36.6388C44.291 36.2639 44.3311 35.8849 44.3749 35.5Z" fill="#11EE92"/>
<path d="M62.1673 54.5022L40.9999 54.6135C40.9266 55.2566 40.8641 55.9451 40.8123 56.6693C40.3326 56.5486 39.8293 56.4897 39.3117 56.5015L13.1558 56.6412C10.4671 56.7022 8.25479 58.7761 8.02039 61.4552C7.76647 64.3575 9.91342 66.9162 12.8157 67.1701L38.9498 67.7067C39.5755 67.7615 40.1831 67.7121 40.757 67.5739C40.8174 68.7548 40.8983 69.9222 40.9999 71.0503L61.6106 71.4669C66.8957 71.922 71.3443 67.6233 70.9789 62.4142C70.6611 57.8836 66.7805 54.3992 62.1673 54.5022Z" fill="#11EE92"/>
<path fill-rule="evenodd" clip-rule="evenodd" d="M78.8008 43.1569C83.0462 47.4024 84.8051 52.0114 84.8051 56.2289C84.8051 60.4464 83.0462 65.0554 78.8008 69.3009C70.795 77.3066 57.8151 77.3066 49.8094 69.3009C41.8036 61.2951 41.8036 48.3152 49.8094 40.3095C56.8295 33.2894 69.7085 34.0646 78.8008 43.1569ZM87.4224 71.5585C95.4796 60.8735 94.4914 47.5338 84.4576 37.5001C73.3277 26.3702 55.2825 23.5227 44.1525 34.6526C33.0226 45.7826 33.0226 63.8278 44.1525 74.9577C54.1998 85.0049 69.8823 85.9823 81.0259 77.8899L98.2463 95.1103C99.4178 96.2818 101.317 96.2818 102.489 95.1103L104.61 92.9889C105.782 91.8174 105.782 89.9179 104.61 88.7463L87.4224 71.5585Z" fill="#116EEE"/>
</g>
<defs>
<clipPath id="clip0">
<rect width="120" height="120" fill="white" transform="translate(0 0.5)"/>
</clipPath>
</defs>
</svg>
