<svg width="16" height="16" viewBox="0 0 16 16" fill="none" xmlns="http://www.w3.org/2000/svg">
<path d="M0 4C0 1.79086 1.79086 0 4 0H12C14.2091 0 16 1.79086 16 4V12C16 14.2091 14.2091 16 12 16H4C1.79086 16 0 14.2091 0 12V4Z" fill="#116EEE"/>
<path fill-rule="evenodd" clip-rule="evenodd" d="M13.1549 4.24433C13.5723 4.60603 13.6174 5.23759 13.2557 5.65495L7.75569 12.1549C7.57388 12.3647 7.31306 12.4895 7.03565 12.4994C6.75823 12.5093 6.48918 12.4034 6.29289 12.2071L2.79289 8.70712C2.40237 8.3166 2.40237 7.68343 2.79289 7.29291C3.18342 6.90238 3.81658 6.90238 4.20711 7.29291L6.94769 10.0335L11.7443 4.34509C12.106 3.92773 12.7376 3.88262 13.1549 4.24433Z" fill="white"/>
</svg>
