<svg width="16" height="17" viewBox="0 0 16 17" fill="none" xmlns="http://www.w3.org/2000/svg">
  <path fill-rule="evenodd" clip-rule="evenodd"
    d="M3 10C3.82843 10 4.5 9.32843 4.5 8.5C4.5 7.67157 3.82843 7 3 7C2.17157 7 1.5 7.67157 1.5 8.5C1.5 9.32843 2.17157 10 3 10ZM9.5 8.5C9.5 9.32843 8.82843 10 8 10C7.17157 10 6.5 9.32843 6.5 8.5C6.5 7.67157 7.17157 7 8 7C8.82843 7 9.5 7.67157 9.5 8.5ZM14.5 8.5C14.5 9.32843 13.8284 10 13 10C12.1716 10 11.5 9.32843 11.5 8.5C11.5 7.67157 12.1716 7 13 7C13.8284 7 14.5 7.67157 14.5 8.5Z"
    fill="#838789" />
</svg>