<svg width="16" height="16" viewBox="0 0 16 16" fill="none" xmlns="http://www.w3.org/2000/svg">
<path fill-rule="evenodd" clip-rule="evenodd" d="M7.11803 1.25C6.73926 1.25 6.393 1.47069 6.22361 1.82006L6 2.28125H3.25C2.83579 2.28125 2.5 2.62753 2.5 3.05469C2.5 3.4075 2.72907 3.70514 3.04221 3.79806L3.39603 12.1901C3.45417 13.5691 4.55519 14.6562 5.89367 14.6562H10.1063C11.4448 14.6562 12.5458 13.5691 12.604 12.1901L12.9578 3.79806C13.2709 3.70514 13.5 3.4075 13.5 3.05469C13.5 2.62753 13.1642 2.28125 12.75 2.28125H10L9.77639 1.82006C9.607 1.47069 9.26074 1.25 8.88197 1.25H7.11803ZM4.04442 3.82812H11.9556L11.6049 12.1453C11.57 12.9727 10.9094 13.625 10.1063 13.625H5.89367C5.09058 13.625 4.42997 12.9727 4.39508 12.1453L4.04442 3.82812ZM6.5 5.63281C6.77614 5.63281 7 5.86367 7 6.14844V10.2734C7 10.5582 6.77614 10.7891 6.5 10.7891C6.22386 10.7891 6 10.5582 6 10.2734V6.14844C6 5.86367 6.22386 5.63281 6.5 5.63281ZM10 6.14844C10 5.86367 9.77614 5.63281 9.5 5.63281C9.22386 5.63281 9 5.86367 9 6.14844V10.2734C9 10.5582 9.22386 10.7891 9.5 10.7891C9.77614 10.7891 10 10.5582 10 10.2734V6.14844Z" fill="#E2222E"/>
</svg>
