<svg width="32" height="32" viewBox="0 0 32 32" xmlns="http://www.w3.org/2000/svg">
  <path fill-rule="evenodd" clip-rule="evenodd"
    d="M7.84776 11.8873C8.57387 8.12166 11.9624 5.3031 16 5.3031C19.0745 5.3031 21.7623 6.93654 23.1965 9.37362C26.4417 9.57662 29 12.2077 29 15.4194C29 18.089 27.5633 19.6446 26.1679 20.4854C25.4848 20.897 24.8104 21.1416 24.3117 21.2838C24.0605 21.3555 23.849 21.4025 23.6964 21.4322C23.6199 21.4471 23.5579 21.4577 23.5127 21.4648C23.49 21.4684 23.4716 21.4711 23.4576 21.4731L23.4399 21.4755L23.4337 21.4764L23.4312 21.4767L23.4301 21.4768C23.4301 21.4768 23.4291 21.477 23.3036 20.4849L23.4301 21.4768C23.3885 21.4821 23.3456 21.4849 23.3036 21.4849H21.7164C21.1641 21.4849 20.7164 21.0371 20.7164 20.4849C20.7164 19.9326 21.1641 19.4849 21.7164 19.4849H23.2277C23.2501 19.4811 23.2793 19.4758 23.3145 19.469C23.4187 19.4487 23.5741 19.4144 23.7632 19.3605C24.1451 19.2516 24.6447 19.0682 25.1357 18.7724C26.0885 18.1982 27 17.2212 27 15.4194C27 13.1729 25.0803 11.2764 22.6302 11.3639C22.2353 11.378 21.869 11.1582 21.6958 10.803C20.6909 8.74289 18.5283 7.3031 16 7.3031C12.621 7.3031 9.90869 9.86051 9.71523 13.0297C9.6976 13.3186 9.55563 13.5857 9.32603 13.762C9.09642 13.9383 8.8017 14.0064 8.51804 13.9488C6.6657 13.5725 5 14.943 5 16.685C5 17.4583 5.20496 17.9677 5.46046 18.3185C5.72345 18.6795 6.08799 18.9372 6.49573 19.1199C6.90564 19.3035 7.32923 19.3974 7.66 19.4436C7.8228 19.4663 7.95653 19.4766 8.04601 19.4812C8.09057 19.4835 8.12366 19.4844 8.14331 19.4847L8.1623 19.4849L8.16367 19.4849L8.17382 19.4848L10.2531 19.4849C10.8054 19.4849 11.2531 19.9326 11.2531 20.4849C11.2531 21.0371 10.8054 21.4849 10.2531 21.4849H8.17834L8.16139 21.4849C8.14836 21.4849 8.13134 21.4848 8.11058 21.4845C8.06909 21.4838 8.0125 21.4822 7.94294 21.4786C7.80416 21.4714 7.61181 21.4563 7.38332 21.4244C6.93149 21.3613 6.31163 21.2289 5.67808 20.9451C5.04238 20.6603 4.36345 20.2094 3.84386 19.496C3.31677 18.7724 3 17.8418 3 16.685C3 13.9709 5.24932 11.9187 7.84776 11.8873Z" />
  <path fill-rule="evenodd" clip-rule="evenodd"
    d="M15.9734 15C16.5257 15 16.9734 15.4477 16.9734 16V26.9091C16.9734 27.4614 16.5257 27.9091 15.9734 27.9091C15.4211 27.9091 14.9734 27.4614 14.9734 26.9091V16C14.9734 15.4477 15.4211 15 15.9734 15Z" />
  <path fill-rule="evenodd" clip-rule="evenodd"
    d="M11.9996 19.7071C12.3901 20.0976 13.0232 20.0976 13.4138 19.7071L15.9794 17.1415L18.545 19.7071C18.9355 20.0976 19.5687 20.0976 19.9592 19.7071C20.3498 19.3166 20.3498 18.6834 19.9592 18.2929L16.6865 15.0202C16.296 14.6296 15.6628 14.6296 15.2723 15.0202L11.9996 18.2929C11.609 18.6834 11.609 19.3166 11.9996 19.7071Z" />
</svg>