<svg width="16" height="16" viewBox="0 0 16 16" fill="none" xmlns="http://www.w3.org/2000/svg">
<path d="M3.83333 2H12.1667C13.1767 2 14 2.82333 14 3.83333V8.01667C13.69 7.82 13.3567 7.66 13 7.54667V3.83333C13 3.37333 12.6267 3 12.1667 3H3.83333C3.37333 3 3 3.37333 3 3.83333V12.1667C3 12.21 3.00333 12.2533 3.01 12.2967L3.01019 12.2979L7.06328 8.37668C7.55328 7.90335 8.38662 7.89002 8.89328 8.33668C8.63662 8.55335 8.40328 8.80002 8.20328 9.06668C8.06995 8.97335 7.87328 8.98668 7.75662 9.09668L3.73186 12.9933H3.73333C3.76665 12.9967 3.80001 13 3.83333 13H7.54667C7.66 13.3567 7.82 13.69 8.01667 14H3.83333C2.82333 14 2 13.1767 2 12.1667V3.83333C2 2.82333 2.82333 2 3.83333 2Z" fill="#666E7E"/>
<path fill-rule="evenodd" clip-rule="evenodd" d="M8 11.6667C8 9.64167 9.64167 8 11.6667 8C13.6917 8 15.3333 9.64167 15.3333 11.6667C15.3333 13.6917 13.6917 15.3333 11.6667 15.3333C9.64167 15.3333 8 13.6917 8 11.6667ZM11.6667 14.3333C11.8507 14.3333 12 14.184 12 14V12H14C14.184 12 14.3333 11.8507 14.3333 11.6667C14.3333 11.4827 14.184 11.3333 14 11.3333H12V9.33333C12 9.14933 11.8507 9 11.6667 9C11.4827 9 11.3333 9.14933 11.3333 9.33333V11.3333H9.33333C9.14933 11.3333 9 11.4827 9 11.6667C9 11.8507 9.14933 12 9.33333 12H11.3333V14C11.3333 14.184 11.4827 14.3333 11.6667 14.3333Z" fill="#666E7E"/>
<path d="M10.1667 4.33333C9.33824 4.33333 8.66667 5.00491 8.66667 5.83333C8.66667 6.66176 9.33824 7.33333 10.1667 7.33333C10.9951 7.33333 11.6667 6.66176 11.6667 5.83333C11.6667 5.00491 10.9951 4.33333 10.1667 4.33333Z" fill="#666E7E"/>
</svg>
