<svg width="24" height="24" viewBox="0 0 24 24" fill="none" xmlns="http://www.w3.org/2000/svg">
<path fill-rule="evenodd" clip-rule="evenodd" d="M9.78947 5.22269C13.2794 -0.242049 22 1.3726 22 9.08355C22 13.6706 18.6278 16.8145 14.3971 16.0591C12.1371 17.8161 8.88487 17.3914 7.14029 15.0552C4.30188 15.0352 2.00038 12.6744 2.00038 9.77741C2.00038 5.70193 6.36184 3.16726 9.78947 5.22346V5.22269ZM2.83345 22C2.6124 22 2.40041 21.9122 2.24411 21.7559C2.08781 21.5996 2 21.3876 2 21.1665C2 20.9455 2.08781 20.7335 2.24411 20.5772C2.40041 20.4209 2.6124 20.333 2.83345 20.333C3.05449 20.333 3.26648 20.4209 3.42278 20.5772C3.57908 20.7335 3.66689 20.9455 3.66689 21.1665C3.66689 21.3876 3.57908 21.5996 3.42278 21.7559C3.26648 21.9122 3.05449 22 2.83345 22ZM5.75031 19.9169C5.30823 19.9169 4.88425 19.7412 4.57164 19.4286C4.25904 19.116 4.08342 18.692 4.08342 18.2499C4.08342 17.8078 4.25904 17.3838 4.57164 17.0712C4.88425 16.7586 5.30823 16.583 5.75031 16.583C6.1924 16.583 6.61638 16.7586 6.92898 17.0712C7.24158 17.3838 7.4172 17.8078 7.4172 18.2499C7.4172 18.692 7.24158 19.116 6.92898 19.4286C6.61638 19.7412 6.1924 19.9169 5.75031 19.9169Z" fill="#666E7E"/>
</svg>
