<svg width="24" height="24" viewBox="0 0 24 24" fill="none" xmlns="http://www.w3.org/2000/svg">
<path d="M9.818 16.1247C9.818 18.212 10.9227 20.0293 12.5593 21H5.818C4.81533 21 4 20.1587 4 19.1253V4.87467C4 3.84133 4.81533 3 5.818 3H18.182C18.382 3 18.5453 3.168 18.5453 3.37533C18.5453 3.582 18.3827 3.75 18.182 3.75H5.818C5.21667 3.75 4.72733 4.25467 4.72733 4.87467C4.72733 5.49467 5.21667 6 5.818 6H18.182C18.382 6 18.5453 6.168 18.5453 6.37533V11.6333C17.6117 10.9005 16.4595 10.5015 15.2727 10.5C12.2593 10.5 9.818 13.0187 9.818 16.1247ZM5.818 4.5H17.4547C17.6547 4.5 17.818 4.668 17.818 4.87467C17.818 5.082 17.6553 5.25 17.4547 5.25H5.818C5.72004 5.24842 5.62673 5.20799 5.55858 5.1376C5.49044 5.0672 5.45306 4.97262 5.45467 4.87467C5.45467 4.668 5.61733 4.5 5.818 4.5ZM15.2733 21C12.6627 21 10.5467 18.8173 10.5467 16.1247C10.5467 13.4333 12.6627 11.25 15.2733 11.25C17.884 11.25 20 13.4333 20 16.1247C20 18.818 17.8833 21 15.2733 21ZM13.3487 15.8847C13.2815 15.8146 13.1887 15.775 13.0917 15.775C12.9946 15.775 12.9018 15.8146 12.8347 15.8847C12.6929 16.0329 12.6929 16.2665 12.8347 16.4147L14.2887 17.9147C14.4313 18.0613 14.6613 18.0613 14.8033 17.9147L17.7127 14.9147C17.8545 14.7665 17.8545 14.5329 17.7127 14.3847C17.6455 14.3144 17.5525 14.2747 17.4553 14.2747C17.3581 14.2747 17.2652 14.3144 17.198 14.3847L14.546 17.1193L13.3487 15.8847Z" fill="#666E7E"/>
</svg>
