<svg width="24" height="24" viewBox="0 0 24 24" fill="none" xmlns="http://www.w3.org/2000/svg">
<path fill-rule="evenodd" clip-rule="evenodd" d="M12 3C17.5133 3 22 6.69037 22 11.2252C22 15.76 17.5141 19.4496 12 19.4496C10.8578 19.4496 9.74 19.2933 8.67481 18.9852L3.31111 21.4778C2.95926 21.6444 2.58519 21.2674 2.76296 20.9148L4.77037 16.9104C2.98148 15.3741 2 13.3667 2 11.2252C2 6.69037 6.48593 3 12 3ZM8.45926 8.34963C8.29436 8.34864 8.13582 8.41315 8.01845 8.52899C7.90109 8.64482 7.83451 8.80251 7.83333 8.96741C7.83333 9.30815 8.11333 9.58444 8.45926 9.58444H13.4578C13.6225 9.58543 13.781 9.52102 13.8983 9.40534C14.0157 9.28967 14.0823 9.13217 14.0837 8.96741C14.0825 8.80251 14.0159 8.64482 13.8986 8.52899C13.7812 8.41315 13.6227 8.34864 13.4578 8.34963H8.45926ZM8.45926 10.8193C8.29449 10.8183 8.13606 10.8827 8.01871 10.9984C7.90137 11.114 7.8347 11.2715 7.83333 11.4363C7.83333 11.777 8.11333 12.0533 8.45926 12.0533H15.9578C16.1225 12.0543 16.281 11.9899 16.3983 11.8742C16.5157 11.7586 16.5823 11.6011 16.5837 11.4363C16.5823 11.2715 16.5157 11.114 16.3983 10.9984C16.281 10.8827 16.1225 10.8183 15.9578 10.8193H8.45926ZM8.45926 13.2881C8.29449 13.2872 8.13606 13.3516 8.01871 13.4672C7.90137 13.5829 7.8347 13.7404 7.83333 13.9052C7.83333 14.2459 8.11333 14.523 8.45926 14.523H15.9578C16.1227 14.5239 16.2812 14.4594 16.3986 14.3436C16.5159 14.2278 16.5825 14.0701 16.5837 13.9052C16.5823 13.7404 16.5157 13.5829 16.3983 13.4672C16.281 13.3516 16.1225 13.2872 15.9578 13.2881H8.45926Z" fill="#666E7E"/>
</svg>
