<svg width="24" height="24" viewBox="0 0 24 24" fill="none" xmlns="http://www.w3.org/2000/svg">
<path fill-rule="evenodd" clip-rule="evenodd" d="M12 3C17.5133 3 22 6.69037 22 11.2252C22 15.76 17.5141 19.4496 12 19.4496C10.8578 19.4496 9.74 19.2933 8.67481 18.9852L3.31111 21.4778C2.95926 21.6444 2.58519 21.2674 2.76296 20.9148L4.77037 16.9104C2.98148 15.3741 2 13.3667 2 11.2252C2 6.69037 6.48593 3 12 3ZM7.62741 8.90667C7.46192 8.90647 7.30313 8.97197 7.1859 9.08878C7.06868 9.20558 7.00261 9.36415 7.00222 9.52963V13.277C7.00222 13.4428 7.06809 13.6019 7.18533 13.7191C7.30258 13.8364 7.4616 13.9022 7.62741 13.9022C7.79322 13.9022 7.95223 13.8364 8.06948 13.7191C8.18672 13.6019 8.25259 13.4428 8.25259 13.277V9.52963C8.2522 9.36415 8.18614 9.20558 8.06891 9.08878C7.95169 8.97197 7.79289 8.90647 7.62741 8.90667ZM16.3778 8.90667C16.2123 8.90647 16.0535 8.97197 15.9363 9.08878C15.819 9.20558 15.753 9.36415 15.7526 9.52963V13.277C15.7526 13.4427 15.8184 13.6017 15.9356 13.7188C16.0528 13.836 16.2117 13.9019 16.3774 13.9019C16.5431 13.9019 16.702 13.836 16.8192 13.7188C16.9364 13.6017 17.0022 13.4427 17.0022 13.277V9.52963C17.0018 9.36427 16.9359 9.20582 16.8188 9.08904C16.7017 8.97225 16.5431 8.90667 16.3778 8.90667ZM12.2111 8.49037C12.1291 8.49027 12.0479 8.50633 11.9721 8.53762C11.8963 8.56891 11.8274 8.61483 11.7693 8.67274C11.7113 8.73066 11.6652 8.79944 11.6337 8.87517C11.6023 8.95089 11.586 9.03207 11.5859 9.11407V13.6926C11.5859 13.8583 11.6518 14.0172 11.7689 14.1344C11.8861 14.2516 12.045 14.3174 12.2107 14.3174C12.3765 14.3174 12.5354 14.2516 12.6526 14.1344C12.7697 14.0172 12.8356 13.8583 12.8356 13.6926V9.11407C12.8354 8.94859 12.7695 8.78995 12.6524 8.673C12.5353 8.55606 12.3766 8.49037 12.2111 8.49037ZM9.71111 9.73852C9.62911 9.73842 9.54789 9.75448 9.47209 9.78577C9.39629 9.81706 9.3274 9.86297 9.26934 9.92089C9.21129 9.97881 9.16521 10.0476 9.13374 10.1233C9.10227 10.199 9.08602 10.2802 9.08593 10.3622V12.4444C9.08593 12.6102 9.15175 12.7691 9.26893 12.8863C9.38611 13.0034 9.54503 13.0693 9.71074 13.0693C9.87645 13.0693 10.0354 13.0034 10.1526 12.8863C10.2697 12.7691 10.3356 12.6102 10.3356 12.4444V10.363C10.3354 10.1975 10.2695 10.0388 10.1524 9.92189C10.0353 9.80495 9.8766 9.73926 9.71111 9.73926V9.73852ZM14.2941 9.73852C14.2121 9.73842 14.1309 9.75448 14.0551 9.78577C13.9793 9.81706 13.9104 9.86297 13.8523 9.92089C13.7943 9.97881 13.7482 10.0476 13.7167 10.1233C13.6852 10.199 13.669 10.2802 13.6689 10.3622V12.4444C13.6689 12.6103 13.7348 12.7693 13.852 12.8865C13.9692 13.0038 14.1283 13.0696 14.2941 13.0696C14.4599 13.0696 14.6189 13.0038 14.7361 12.8865C14.8534 12.7693 14.9193 12.6103 14.9193 12.4444V10.363C14.9192 10.281 14.9029 10.1998 14.8714 10.1241C14.84 10.0483 14.7939 9.97955 14.7358 9.92163C14.6778 9.86372 14.6089 9.8178 14.5331 9.78651C14.4573 9.75522 14.3761 9.73916 14.2941 9.73926V9.73852Z" fill="#666E7E"/>
</svg>
