<svg width="24" height="24" viewBox="0 0 24 24" fill="none" xmlns="http://www.w3.org/2000/svg">
<path fill-rule="evenodd" clip-rule="evenodd" d="M14.5 2.03396L5.05971 2C5.0382 2.01361 5.01551 2.02503 4.9918 2.03396C4.70013 2.09342 4.4396 2.25588 4.25785 2.49162C4.0761 2.72736 3.98526 3.02064 4.00195 3.31785V20.6362C4.004 21.4861 4.5129 22 5.35712 22L18.6113 22.034C19.4536 22.034 19.9666 21.5141 19.9666 20.6681V7.80137C19.9711 7.67546 19.9486 7.55006 19.9007 7.43351C19.8529 7.31697 19.7807 7.21195 19.6891 7.12547C18.0925 5.53348 16.4958 3.93769 14.8991 2.33795C14.7731 2.22759 14.6398 2.12616 14.5 2.03396ZM17.7941 6.99945H15L15.0001 4.19983L17.7941 6.99945ZM17.0866 14.5027H11.7596L11.7577 14.5008H7.39263C7.23539 14.4936 7.08131 14.5466 6.96174 14.649C6.84216 14.7513 6.76607 14.8954 6.74893 15.0519C6.7315 15.2084 6.77431 15.3657 6.86867 15.4918C6.96304 15.6179 7.10187 15.7033 7.25695 15.7307C7.32751 15.7423 7.39903 15.747 7.47049 15.7446H16.9869C17.0649 15.7483 17.1431 15.7443 17.2203 15.7328C17.3751 15.7052 17.5136 15.6199 17.6078 15.4941C17.702 15.3683 17.7449 15.2113 17.7278 15.0551C17.711 14.8988 17.6354 14.7548 17.5163 14.6522C17.3972 14.5497 17.2436 14.4962 17.0866 14.5027ZM7.45249 18.2484H11.7217V18.2465H17.0327C17.4498 18.2465 17.7313 17.9924 17.7313 17.6245C17.7313 17.2565 17.444 16.9985 17.0327 16.9985H7.45059C7.03346 16.9985 6.75405 17.2584 6.75405 17.6264C6.75405 17.9945 7.03946 18.2484 7.45249 18.2484ZM16.9668 11.999H11.7416V11.993H7.43054C7.29592 11.9833 7.16171 12.0169 7.04753 12.0888C6.93335 12.1608 6.84518 12.2674 6.79591 12.3931C6.63623 12.8229 6.94169 13.2409 7.43463 13.2409H17.1066C17.2613 13.2411 17.4105 13.1833 17.5247 13.0789C17.639 12.9746 17.71 12.8312 17.7238 12.6771C17.7379 12.523 17.6939 12.3692 17.6003 12.246C17.5068 12.1227 17.3705 12.0389 17.2183 12.011C17.135 11.9994 17.0508 11.9953 16.9668 11.999ZM11.0412 9.50327H9.2447C9.04303 9.50327 8.8416 9.50305 8.64026 9.50282C8.23781 9.50236 7.83568 9.50191 7.43259 9.50327C7.31794 9.49409 7.20299 9.51685 7.10049 9.56904C6.998 9.62123 6.91197 9.70081 6.85197 9.79893C6.79183 9.89715 6.76001 10.0101 6.76001 10.1252C6.76001 10.2404 6.79183 10.3533 6.85197 10.4516C6.91197 10.5497 6.998 10.6292 7.10049 10.6814C7.20299 10.7336 7.31794 10.7564 7.43259 10.7472H11.0412C11.4583 10.7472 11.7377 10.4931 11.7396 10.1253C11.7416 9.75721 11.4583 9.50327 11.0412 9.50327Z" fill="#666E7E"/>
</svg>
