<svg width="24" height="24" viewBox="0 0 24 24" fill="none" xmlns="http://www.w3.org/2000/svg">
<path d="M13.4752 14.5968C13.9249 14.3176 13.9252 13.8644 13.4752 13.5849L11.648 12.4502C11.1982 12.1709 10.8331 12.3697 10.8331 12.8944V15.2873C10.8331 15.812 11.198 16.0108 11.648 15.7315L13.4752 14.5968Z" fill="#666E7E"/>
<path fill-rule="evenodd" clip-rule="evenodd" d="M14.5334 2H5.05971C5.0382 2.01361 5.01551 2.02503 4.9918 2.03396C4.70013 2.09342 4.4396 2.25588 4.25785 2.49162C4.0761 2.72736 3.98526 3.02064 4.00195 3.31785V20.6362C4.004 21.4861 4.5129 22 5.35712 22H18.6447C19.487 22 20 21.4801 20 20.6341V7.76741C20.0044 7.64151 19.9819 7.5161 19.9341 7.39956C19.8862 7.28301 19.8141 7.178 19.7225 7.09151C18.1258 5.49953 16.5292 3.90374 14.9325 2.30399C14.8065 2.19364 14.6731 2.09221 14.5334 2ZM17.8274 6.96549H15.0334L15.0335 4.16587L17.8274 6.96549ZM17 14C17 16.7614 14.7615 19 12 19C9.23846 19 7 16.7614 7 14C7 11.2386 9.23846 9 12 9C14.7615 9 17 11.2386 17 14Z" fill="#666E7E"/>
</svg>
