<svg width="24" height="24" viewBox="0 0 24 24" fill="none" xmlns="http://www.w3.org/2000/svg">
<path fill-rule="evenodd" clip-rule="evenodd" d="M14.3474 3C14.5634 3 14.7385 3.16826 14.7385 3.37565V11.2503H9.26073V3.37487C9.26073 3.16826 9.4358 3 9.65183 3C9.86865 3 10.0429 3.16826 10.0429 3.37565V5.99974C10.0429 6.81444 10.0429 7.34739 10.2075 7.68861C10.4822 8.24974 11.3455 8.24974 11.9992 8.24974C12.6537 8.24974 13.517 8.24974 13.7916 7.68939V7.68783C13.9563 7.34661 13.9563 6.81365 13.9563 5.99896V3.37565C13.9563 3.16904 14.1313 3.00078 14.3474 3.00078V3ZM8.08664 3C8.30347 3 8.47774 3.16826 8.47774 3.37565V11.2503H3.0008V3.37487C3.0008 3.16826 3.17587 3 3.3919 3C3.60792 3 3.78299 3.16826 3.78299 3.37565V5.99974C3.78299 6.81444 3.78299 7.34739 3.94682 7.68861C4.22227 8.24974 5.08477 8.24974 5.73927 8.24974C6.39377 8.24974 7.25547 8.24974 7.53092 7.68939V7.68783C7.69555 7.34661 7.69555 6.81365 7.69555 5.99896V3.37565C7.69555 3.16904 7.87062 3.00078 8.08664 3.00078V3ZM20.6073 3C20.8241 3 20.9992 3.16826 20.9992 3.37565V11.2503H15.5207V3.37487C15.5207 3.16826 15.6965 3 15.9126 3C16.1286 3 16.3036 3.16826 16.3036 3.37565V5.99974C16.3036 6.81444 16.3036 7.34739 16.4683 7.68861C16.7437 8.24974 17.6054 8.24974 18.2599 8.24974C18.9144 8.24974 19.7769 8.24974 20.0524 7.68939V7.68783C20.2162 7.34661 20.2162 6.81365 20.2162 5.99896V3.37565C20.2162 3.16904 20.3913 3.00078 20.6073 3.00078V3ZM3 12H8.47774V12.7497H3.0008V12H3ZM3 16.5H8.47774V17.2497H3.0008V16.5H3ZM3 19.4997V18.0003H8.47774V19.4997C8.47774 20.4389 7.74694 21 6.52146 21H4.95788C3.7332 21 3.0008 20.4389 3.0008 19.4997H3ZM3 13.5003H8.47774V15.7503H3.0008V13.5003H3ZM4.95788 7.5C4.90681 7.50052 4.85614 7.4912 4.80877 7.47258C4.7614 7.45396 4.71828 7.42641 4.68186 7.39151C4.64545 7.3566 4.61647 7.31504 4.59658 7.26919C4.5767 7.22334 4.5663 7.17412 4.56599 7.12435V4.12617C4.56599 3.91878 4.74186 3.75052 4.95788 3.75052C5.17311 3.75052 5.34898 3.91878 5.34898 4.12617V7.12435C5.34898 7.33096 5.17311 7.49922 4.95788 7.49922V7.5ZM6.52226 7.5C6.47126 7.50041 6.42067 7.49102 6.3734 7.47235C6.32612 7.45369 6.28309 7.42612 6.24676 7.39123C6.21043 7.35633 6.18153 7.3148 6.16169 7.26901C6.14186 7.22321 6.13148 7.17405 6.13117 7.12435V4.12617C6.13117 3.91878 6.30624 3.75052 6.52226 3.75052C6.73909 3.75052 6.91416 3.91878 6.91416 4.12617V7.12435C6.91416 7.33096 6.73829 7.49922 6.52226 7.49922V7.5ZM9.26073 12H14.7393V12.7497H9.26153V12H9.26073ZM9.26073 13.5003H14.7393V15.7503H9.26153V13.5003H9.26073ZM9.26073 19.4997V18.0003H14.7393V19.4997C14.7393 20.4389 14.0077 21 12.783 21H11.2178C9.99313 21 9.26153 20.4389 9.26153 19.4997H9.26073ZM9.26073 16.5H14.7393V17.2497H9.26153V16.5H9.26073ZM11.2178 7.5C11.1668 7.50041 11.1162 7.49102 11.0689 7.47235C11.0217 7.45369 10.9786 7.42612 10.9423 7.39123C10.906 7.35633 10.8771 7.3148 10.8572 7.26901C10.8374 7.22321 10.827 7.17405 10.8267 7.12435V4.12617C10.8267 3.91878 11.0018 3.75052 11.2178 3.75052C11.4338 3.75052 11.6089 3.91878 11.6089 4.12617V7.12435C11.6089 7.33096 11.4338 7.49922 11.2178 7.49922V7.5ZM12.783 7.5C12.732 7.50041 12.6814 7.49102 12.6341 7.47235C12.5869 7.45369 12.5438 7.42612 12.5075 7.39123C12.4712 7.35633 12.4423 7.3148 12.4224 7.26901C12.4026 7.22321 12.3922 7.17405 12.3919 7.12435V4.12617C12.3919 3.91878 12.567 3.75052 12.783 3.75052C12.999 3.75052 13.1741 3.91878 13.1741 4.12617V7.12435C13.1741 7.33096 12.999 7.49922 12.783 7.49922V7.5ZM15.5215 19.4997V18.0003H21V19.4997C21 20.4389 20.2676 21 19.0429 21H17.4777C16.2531 21 15.5207 20.4389 15.5207 19.4997H15.5215ZM15.5215 13.5003H21V15.7503H15.5215V13.5003ZM15.5215 16.5H21V17.2497H15.5215V16.5ZM15.5215 12H21V12.7497H15.5215V12ZM17.4785 7.5C17.4275 7.50052 17.3768 7.4912 17.3294 7.47258C17.2821 7.45396 17.2389 7.42641 17.2025 7.39151C17.1661 7.3566 17.1371 7.31504 17.1172 7.26919C17.0974 7.22334 17.087 7.17412 17.0866 7.12435V4.12617C17.0866 3.91878 17.2625 3.75052 17.4785 3.75052C17.6946 3.75052 17.8696 3.91878 17.8696 4.12617V7.12435C17.8696 7.33096 17.6946 7.49922 17.4785 7.49922V7.5ZM19.0429 7.5C18.9919 7.50041 18.9413 7.49102 18.8941 7.47235C18.8468 7.45369 18.8037 7.42612 18.7674 7.39123C18.7311 7.35633 18.7022 7.3148 18.6823 7.26901C18.6625 7.22321 18.6521 7.17405 18.6518 7.12435V4.12617C18.6518 3.91878 18.8277 3.75052 19.0429 3.75052C19.2597 3.75052 19.4348 3.91878 19.4348 4.12617V7.12435C19.4348 7.33096 19.2589 7.49922 19.0429 7.49922V7.5Z" fill="#666E7E"/>
</svg>
