<svg width="24" height="24" viewBox="0 0 24 24" fill="none" xmlns="http://www.w3.org/2000/svg">
<path fill-rule="evenodd" clip-rule="evenodd" d="M11.9996 3C17.5132 3 22 6.68427 22 11.2118C22 15.7402 17.5139 19.4244 11.9996 19.4244C10.8573 19.4244 9.73999 19.2682 8.67472 18.9601L3.31063 21.4493C2.96184 21.6154 2.58359 21.2432 2.76252 20.8868L4.77075 16.8885C2.98147 15.3544 2 13.3499 2 11.2118C2 6.68427 6.48605 3 11.9996 3ZM11.1692 12.5557C11.1674 13.1076 10.9467 13.6363 10.5557 14.0258C10.1646 14.4153 9.63509 14.6338 9.08316 14.6334C9.02709 14.6358 8.97112 14.6268 8.91861 14.607C8.8661 14.5872 8.81814 14.5569 8.77763 14.5181C8.73711 14.4793 8.70486 14.4327 8.68283 14.381C8.66081 14.3294 8.64945 14.2739 8.64945 14.2178C8.64945 14.1617 8.66081 14.1061 8.68283 14.0545C8.70486 14.0029 8.73711 13.9563 8.77763 13.9174C8.81814 13.8786 8.8661 13.8484 8.91861 13.8286C8.97112 13.8087 9.02709 13.7998 9.08316 13.8022C9.41424 13.8022 9.73187 13.6712 9.96669 13.4378C10.2015 13.2044 10.3344 12.8875 10.3364 12.5565V11.7245H7.41618C7.3616 11.7248 7.30751 11.7142 7.25703 11.6935C7.20656 11.6727 7.16072 11.6421 7.12216 11.6035C7.0836 11.5648 7.0531 11.5189 7.03242 11.4684C7.01174 11.4179 7.0013 11.3638 7.0017 11.3092V7.98584C7.0013 7.93127 7.01174 7.87715 7.03242 7.82664C7.0531 7.77613 7.0836 7.73023 7.12216 7.6916C7.16072 7.65297 7.20656 7.62239 7.25703 7.60162C7.30751 7.58085 7.3616 7.57031 7.41618 7.57061H10.7494C10.9789 7.57061 11.1661 7.75633 11.1684 7.98584V12.5557H11.1692ZM16.9998 12.5557C16.9984 13.1074 16.7782 13.6359 16.3876 14.0254C15.9969 14.4149 15.4677 14.6336 14.9161 14.6334C14.86 14.6358 14.804 14.6268 14.7515 14.607C14.699 14.5872 14.6511 14.5569 14.6105 14.5181C14.57 14.4793 14.5378 14.4327 14.5158 14.381C14.4937 14.3294 14.4824 14.2739 14.4824 14.2178C14.4824 14.1617 14.4937 14.1061 14.5158 14.0545C14.5378 14.0029 14.57 13.9563 14.6105 13.9174C14.6511 13.8786 14.699 13.8484 14.7515 13.8286C14.804 13.8087 14.86 13.7998 14.9161 13.8022C15.6054 13.8022 16.1663 13.2435 16.1663 12.5565V11.7245H13.2499C13.1953 11.7248 13.1412 11.7142 13.0907 11.6935C13.0402 11.6727 12.9944 11.6421 12.9558 11.6035C12.9173 11.5648 12.8868 11.5189 12.8661 11.4684C12.8454 11.4179 12.835 11.3638 12.8354 11.3092V7.98584C12.835 7.93127 12.8454 7.87715 12.8661 7.82664C12.8868 7.77613 12.9173 7.73023 12.9558 7.6916C12.9944 7.65297 13.0402 7.62239 13.0907 7.60162C13.1412 7.58085 13.1953 7.57031 13.2499 7.57061H16.5831C16.8133 7.57061 16.9998 7.75633 17.0021 7.98584L16.9998 12.5557ZM7.83594 8.40108V10.894H10.3357V8.40108H7.83594ZM13.6689 8.40108V10.894H16.1686V8.40108H13.6696H13.6689Z" fill="#666E7E"/>
</svg>
