<svg width="24" height="24" viewBox="0 0 24 24" fill="none" xmlns="http://www.w3.org/2000/svg">
<path fill-rule="evenodd" clip-rule="evenodd" d="M17.097 19.7173L18.393 21H6.22634C5.18301 21 4.33301 20.158 4.33301 19.1247V4.87467C4.33301 3.84133 5.18234 3 6.22634 3H18.1063C18.315 3 18.485 3.168 18.485 3.37467C18.485 3.582 18.315 3.75 18.1063 3.75H6.22634C5.59968 3.75 5.08968 4.25467 5.08968 4.87467C5.08968 5.49467 5.60034 6 6.22701 6H18.1057C18.3143 6 18.4843 6.168 18.4843 6.37467V13.76C18.0982 13.2157 17.5873 12.7718 16.9944 12.4656C16.4014 12.1594 15.7437 11.9997 15.0763 12C12.7783 12 10.909 13.85 10.909 16.1247C10.909 18.3993 12.7783 20.25 15.0757 20.25C15.7842 20.2505 16.4807 20.067 17.097 19.7173ZM6.22701 4.5H17.3477C17.557 4.5 17.727 4.668 17.727 4.87467C17.727 5.082 17.557 5.25 17.3477 5.25H6.22701C6.12705 5.25035 6.03103 5.21103 5.96004 5.14066C5.88904 5.07029 5.84887 4.97463 5.84834 4.87467C5.84834 4.668 6.01768 4.5 6.22701 4.5ZM19.889 20.3593C19.9241 20.394 19.9519 20.4354 19.9709 20.4809C19.9899 20.5265 19.9997 20.5753 19.9997 20.6247C19.9997 20.674 19.9899 20.7229 19.9709 20.7684C19.9519 20.814 19.9241 20.8553 19.889 20.89C19.8175 20.9604 19.7213 20.9998 19.621 20.9998C19.5207 20.9998 19.4245 20.9604 19.353 20.89L17.191 18.75C16.5913 19.2321 15.8458 19.4965 15.0763 19.5C13.1963 19.5 11.6663 17.9847 11.6663 16.1247C11.6663 14.2647 13.1957 12.75 15.0763 12.75C16.9557 12.75 18.4843 14.264 18.4843 16.1247C18.4843 16.92 18.1937 17.642 17.727 18.2193L19.889 20.3593ZM15.0757 18.75C16.5377 18.75 17.727 17.5727 17.727 16.1247C17.727 14.678 16.5377 13.5 15.0763 13.5C13.613 13.5 12.4237 14.6773 12.4237 16.1247C12.4237 17.5727 13.6123 18.75 15.0757 18.75Z" fill="#666E7E"/>
</svg>
