<svg width="24" height="24" viewBox="0 0 24 24" fill="none" xmlns="http://www.w3.org/2000/svg">
<path fill-rule="evenodd" clip-rule="evenodd" d="M8.62447 21.9595C8.5369 21.9172 8.46787 21.8442 8.43043 21.7545C8.39299 21.6647 8.38973 21.5643 8.42126 21.4723L11.4437 12.4002H8.39966C8.26526 12.4002 8.14046 12.3346 8.06846 12.2218C8.03134 12.1675 8.00846 12.1048 8.00193 12.0393C7.99541 11.9739 8.00545 11.9079 8.03112 11.8474L12.0307 2.24721C12.0606 2.17395 12.1117 2.11129 12.1775 2.06726C12.2432 2.02322 12.3206 1.9998 12.3997 2H16.1998C16.3342 2 16.4622 2.0688 16.5342 2.1816C16.6094 2.29681 16.6214 2.44081 16.5654 2.56241L13.4179 9.60013H16.3993C16.4714 9.60046 16.5422 9.62007 16.6043 9.65691C16.6664 9.69376 16.7175 9.74652 16.7523 9.80973C16.8211 9.93773 16.8155 10.0969 16.7337 10.2185L9.13408 21.8187C9.08092 21.9003 8.99978 21.9597 8.90592 21.9856C8.81207 22.0115 8.71197 22.0022 8.62447 21.9595Z" fill="#666E7E"/>
</svg>
