<svg width="24" height="24" viewBox="0 0 24 24" fill="none" xmlns="http://www.w3.org/2000/svg">
<path d="M12 2C17.5231 2 22 6.47692 22 12C22 17.5231 17.5231 22 12 22C6.47692 22 2 17.5231 2 12C2 6.47692 6.47692 2 12 2ZM12 17.6523C12.4805 17.6523 12.87 17.2628 12.87 16.7823C12.87 16.3018 12.4805 15.9123 12 15.9123C11.5195 15.9123 11.13 16.3018 11.13 16.7823C11.13 17.2628 11.5195 17.6523 12 17.6523ZM12.4346 12.4046C13.9311 12.1861 15.0414 10.9039 15.0438 9.39154C15.0426 7.711 13.6805 6.34897 12 6.34769C10.3195 6.34897 8.95743 7.711 8.95615 9.39154C8.95615 9.63157 9.15074 9.82615 9.39077 9.82615C9.6308 9.82615 9.82539 9.63157 9.82539 9.39154C9.82666 8.19118 10.7996 7.21854 12 7.21769C13.1999 7.21939 14.1722 8.19166 14.1738 9.39154C14.1722 10.5914 13.1999 11.5637 12 11.5654C11.76 11.5654 11.5654 11.76 11.5654 12V14.6085C11.5654 14.8485 11.76 15.0431 12 15.0431C12.24 15.0431 12.4346 14.8485 12.4346 14.6085V12.4046Z" fill="#666E7E"/>
</svg>
