<svg width="24" height="24" viewBox="0 0 24 24" fill="none" xmlns="http://www.w3.org/2000/svg">
<path d="M5.58545 2.00002H18.4145C18.6218 1.99906 18.8272 2.03893 19.019 2.11736C19.2109 2.19579 19.3854 2.31124 19.5326 2.45711C19.6798 2.60298 19.7969 2.77642 19.8771 2.96753C19.9573 3.15864 19.999 3.36368 20 3.57093V16.1382C19.999 16.3454 19.9573 16.5505 19.8771 16.7416C19.7969 16.9327 19.6798 17.1061 19.5326 17.252C19.3854 17.3979 19.2109 17.5133 19.019 17.5918C18.8272 17.6702 18.6218 17.7101 18.4145 17.7091H5.58545C5.3782 17.7101 5.17279 17.6702 4.98095 17.5918C4.78911 17.5133 4.6146 17.3979 4.46738 17.252C4.32015 17.1061 4.2031 16.9327 4.12291 16.7416C4.04272 16.5505 4.00095 16.3454 4 16.1382V3.57093C4.00095 3.36368 4.04272 3.15864 4.12291 2.96753C4.2031 2.77642 4.32015 2.60298 4.46738 2.45711C4.6146 2.31124 4.78911 2.19579 4.98095 2.11736C5.17279 2.03893 5.3782 1.99906 5.58545 2.00002ZM16.8415 21.6364H7.15855C6.80945 21.6364 6.52582 21.3724 6.52582 21.0473C6.52582 20.7222 6.80945 20.4582 7.15855 20.4582H16.8415C17.1905 20.4582 17.4742 20.7222 17.4742 21.0473C17.4742 21.3724 17.1905 21.6364 16.8415 21.6364ZM5.896 18.4946H18.1047C18.4538 18.4946 18.7375 18.7586 18.7375 19.0837C18.7375 19.4087 18.4538 19.6727 18.1047 19.6727H5.89527C5.54618 19.6727 5.26255 19.4087 5.26255 19.0837C5.26255 18.7586 5.54618 18.4946 5.89527 18.4946H5.896ZM11.9542 12.3295C12.0303 12.2906 12.1145 12.2704 12.2 12.2704C12.2855 12.2704 12.3697 12.2906 12.4458 12.3295L13.7295 12.9855C13.8327 13.0378 13.9499 13.0556 14.064 13.0364C14.1312 13.0263 14.1957 13.003 14.2537 12.9678C14.3118 12.9326 14.3624 12.8862 14.4024 12.8314C14.4425 12.7765 14.4712 12.7142 14.487 12.6482C14.5028 12.5821 14.5054 12.5136 14.4945 12.4466L14.2487 11.0553C14.2344 10.9733 14.2408 10.889 14.2672 10.81C14.2936 10.731 14.3392 10.6599 14.4 10.6029L15.4415 9.61747C15.5236 9.5398 15.5773 9.43688 15.5942 9.32511C15.6034 9.25777 15.5991 9.18928 15.5817 9.1236C15.5642 9.05792 15.5339 8.99635 15.4925 8.94245C15.4511 8.88855 15.3995 8.84339 15.3405 8.80958C15.2816 8.77577 15.2165 8.75398 15.1491 8.74547L13.712 8.54183C13.6282 8.53062 13.5484 8.49938 13.4793 8.45077C13.4102 8.40215 13.3538 8.33759 13.3149 8.26256L12.6727 6.99783C12.6273 6.91181 12.5593 6.83981 12.476 6.78959C12.3927 6.73937 12.2973 6.71282 12.2 6.71282C12.1027 6.71282 12.0073 6.73937 11.924 6.78959C11.8407 6.83981 11.7727 6.91181 11.7273 6.99783L11.0851 8.26256C11.0463 8.33773 10.99 8.40243 10.9208 8.45118C10.8517 8.49992 10.7718 8.53127 10.688 8.54256L9.25091 8.74547C9.13719 8.76121 9.03159 8.81325 8.94982 8.89383C8.90147 8.94114 8.86321 8.99776 8.83736 9.06027C8.81151 9.12278 8.7986 9.18988 8.79942 9.25752C8.80023 9.32516 8.81476 9.39193 8.84211 9.4538C8.86946 9.51566 8.90907 9.57134 8.95855 9.61747L10 10.6029C10.0608 10.6599 10.1064 10.731 10.1328 10.81C10.1592 10.889 10.1656 10.9733 10.1513 11.0553L9.90545 12.4466C9.88595 12.5576 9.90466 12.6719 9.95855 12.7709C10.0263 12.892 10.1384 12.982 10.2712 13.022C10.404 13.062 10.5472 13.0489 10.6705 12.9855L11.9542 12.3295Z" fill="#666E7E"/>
</svg>
