<svg width="56" height="57" viewBox="0 0 56 57" fill="none" xmlns="http://www.w3.org/2000/svg">
<rect y="0.5" width="56" height="56" rx="28" fill="#116EEE"/>
<path d="M19.4479 15.6668H36.5534C36.8297 15.6655 37.1036 15.7187 37.3594 15.8232C37.6152 15.9278 37.8479 16.0817 38.0441 16.2762C38.2404 16.4707 38.3965 16.702 38.5034 16.9568C38.6104 17.2116 38.666 17.485 38.6673 17.7613V34.5177C38.666 34.794 38.6104 35.0674 38.5034 35.3222C38.3965 35.577 38.2404 35.8083 38.0441 36.0028C37.8479 36.1973 37.6152 36.3512 37.3594 36.4558C37.1036 36.5603 36.8297 36.6135 36.5534 36.6122H19.4479C19.1716 36.6135 18.8977 36.5603 18.6419 36.4558C18.3861 36.3512 18.1535 36.1973 17.9572 36.0028C17.7609 35.8083 17.6048 35.577 17.4979 35.3222C17.3909 35.0674 17.3353 34.794 17.334 34.5177V17.7613C17.3353 17.485 17.3909 17.2116 17.4979 16.9568C17.6048 16.702 17.7609 16.4707 17.9572 16.2762C18.1535 16.0817 18.3861 15.9278 18.6419 15.8232C18.8977 15.7187 19.1716 15.6655 19.4479 15.6668ZM34.4559 41.8486H21.5454C21.0799 41.8486 20.7017 41.4966 20.7017 41.0631C20.7017 40.6297 21.0799 40.2777 21.5454 40.2777H34.4559C34.9214 40.2777 35.2996 40.6297 35.2996 41.0631C35.2996 41.4966 34.9214 41.8486 34.4559 41.8486ZM19.862 37.6595H36.1403C36.6057 37.6595 36.9839 38.0115 36.9839 38.445C36.9839 38.8784 36.6057 39.2304 36.1403 39.2304H19.861C19.3956 39.2304 19.0174 38.8784 19.0174 38.445C19.0174 38.0115 19.3956 37.6595 19.861 37.6595H19.862ZM27.9396 29.4394C28.0411 29.3876 28.1534 29.3606 28.2673 29.3606C28.3813 29.3606 28.4936 29.3876 28.5951 29.4394L30.3066 30.314C30.4442 30.3838 30.6005 30.4076 30.7527 30.3819C30.8422 30.3685 30.9282 30.3374 31.0056 30.2904C31.0831 30.2435 31.1505 30.1817 31.2039 30.1086C31.2573 30.0354 31.2956 29.9524 31.3167 29.8643C31.3378 29.7763 31.3412 29.6849 31.3267 29.5955L30.999 27.7405C30.9799 27.6311 30.9883 27.5187 31.0236 27.4134C31.0588 27.3081 31.1196 27.2132 31.2007 27.1373L32.5893 25.8234C32.6988 25.7198 32.7704 25.5826 32.7929 25.4336C32.8051 25.3438 32.7995 25.2525 32.7762 25.1649C32.7529 25.0773 32.7126 24.9952 32.6574 24.9233C32.6022 24.8515 32.5333 24.7913 32.4547 24.7462C32.3761 24.7011 32.2893 24.6721 32.1994 24.6607L30.2833 24.3892C30.1716 24.3742 30.0652 24.3326 29.973 24.2678C29.8809 24.203 29.8057 24.1169 29.7539 24.0168L28.8976 22.3305C28.8371 22.2158 28.7464 22.1198 28.6353 22.0529C28.5242 21.9859 28.397 21.9505 28.2673 21.9505C28.1376 21.9505 28.0104 21.9859 27.8993 22.0529C27.7882 22.1198 27.6976 22.2158 27.637 22.3305L26.7808 24.0168C26.7291 24.1171 26.6539 24.2033 26.5618 24.2683C26.4696 24.3333 26.3631 24.3751 26.2513 24.3902L24.3352 24.6607C24.1836 24.6817 24.0428 24.7511 23.9337 24.8585C23.8693 24.9216 23.8183 24.9971 23.7838 25.0804C23.7493 25.1638 23.7321 25.2533 23.7332 25.3434C23.7343 25.4336 23.7537 25.5227 23.7901 25.6051C23.8266 25.6876 23.8794 25.7619 23.9454 25.8234L25.334 27.1373C25.415 27.2132 25.4759 27.3081 25.5111 27.4134C25.5463 27.5187 25.5547 27.6311 25.5357 27.7405L25.2079 29.5955C25.1819 29.7435 25.2069 29.896 25.2787 30.028C25.369 30.1894 25.5185 30.3094 25.6956 30.3628C25.8727 30.4161 26.0636 30.3987 26.228 30.314L27.9396 29.4394Z" fill="white"/>
</svg>
