<svg width="56" height="56" viewBox="0 0 56 56" fill="none" xmlns="http://www.w3.org/2000/svg">
<path fill-rule="evenodd" clip-rule="evenodd" d="M28 56C43.464 56 56 43.464 56 28C56 12.536 43.464 0 28 0C12.536 0 0 12.536 0 28C0 43.464 12.536 56 28 56Z" fill="#6DA544"/>
<path fill-rule="evenodd" clip-rule="evenodd" d="M28 38.768C28.3321 38.7677 28.6586 38.7578 28.8978 38.7391C29.0002 38.7312 29.0837 38.8132 29.0837 38.9143V39.0421C29.552 39.0022 30.1501 38.9115 30.6119 38.8059L30.5727 38.6823C30.5408 38.586 30.5856 38.4856 30.6856 38.4619C31.1981 38.3406 31.966 38.0908 32.4022 37.9131C32.4971 37.8744 32.6027 37.9267 32.6342 38.023L32.6744 38.1447C33.1072 37.9644 33.6474 37.696 34.0536 37.4553L33.9775 37.3496C33.917 37.2677 33.928 37.1587 34.0155 37.1058C34.4648 36.8346 35.1167 36.3635 35.4758 36.0618C35.5542 35.9961 35.6706 36.014 35.731 36.0958L35.8074 36.1993C36.1623 35.8962 36.5919 35.4767 36.9025 35.1243L36.7968 35.0469C36.7137 34.9874 36.69 34.8805 36.7567 34.8035C37.0987 34.4089 37.5708 33.7626 37.8175 33.3666C37.8713 33.2804 37.9877 33.2619 38.0709 33.3213L38.1759 33.3965C38.4185 33.0003 38.6952 32.4708 38.88 32.041L38.7553 31.9995C38.6574 31.9685 38.6012 31.8738 38.6404 31.7803C38.8419 31.3011 39.0879 30.543 39.1982 30.0911C39.2222 29.9928 39.3271 29.9397 39.4251 29.9711L39.5486 30.0106C39.6547 29.5602 39.7518 28.9725 39.7926 28.5077L39.661 28.5064C39.5581 28.5064 39.475 28.4336 39.483 28.3328C39.524 27.8156 39.52 27.0199 39.483 26.5566C39.4749 26.456 39.5581 26.3735 39.661 26.3735H39.7909C39.7503 25.9129 39.6581 25.3243 39.5507 24.8699L39.4252 24.9085C39.3272 24.9398 39.2252 24.8958 39.2013 24.7975C39.0779 24.2931 38.8241 23.5375 38.6436 23.1083C38.6042 23.0148 38.6574 22.9112 38.7553 22.8799L38.8789 22.8405C38.6955 22.4146 38.4229 21.8829 38.1782 21.4833L38.0708 21.5583C37.9875 21.6177 37.8768 21.6069 37.8231 21.5207C37.5473 21.0787 37.0687 20.4371 36.7621 20.0839C36.6954 20.0069 36.7134 19.8921 36.7967 19.8327L36.9017 19.7575C36.5936 19.4084 36.1675 18.9856 35.8094 18.6799L35.7307 18.784C35.6703 18.8657 35.5614 18.8891 35.4833 18.8234C35.0822 18.4869 34.4255 18.0224 34.023 17.7796C33.9354 17.7267 33.9166 17.612 33.977 17.5301L34.0534 17.4268C33.6508 17.1882 33.1127 16.9159 32.6759 16.7341L32.6338 16.8569C32.6022 16.9532 32.506 17.0085 32.411 16.9697C31.9239 16.7716 31.1536 16.5295 30.6943 16.421C30.5944 16.3974 30.5405 16.2941 30.5724 16.1977L30.6123 16.0762C30.1548 15.9719 29.5574 15.8763 29.0852 15.8363L29.0837 15.9658C29.0837 16.0668 29.0099 16.1486 28.9073 16.1408C28.3819 16.1003 27.5732 16.1045 27.1024 16.1408C26.9999 16.1487 26.9163 16.0668 26.9163 15.9658V15.8378C26.4482 15.8777 25.8501 15.9684 25.3881 16.074L25.4274 16.1977C25.4592 16.2941 25.4144 16.3943 25.3145 16.418C24.8019 16.5393 24.0341 16.7891 23.598 16.9668C23.5029 17.0055 23.3975 16.9532 23.3658 16.8569L23.3258 16.7353C22.8929 16.9157 22.3526 17.1839 21.9464 17.4246L22.0227 17.5304C22.0832 17.6122 22.0722 17.7212 21.9846 17.7741C21.5353 18.0455 20.8833 18.5164 20.5242 18.8181C20.4461 18.8838 20.3295 18.866 20.2691 18.7841L20.1927 18.6806C19.8379 18.9837 19.4081 19.4032 19.0976 19.7556L19.2032 19.833C19.2864 19.8923 19.3102 19.9994 19.2435 20.0764C18.9013 20.4711 18.4294 21.1172 18.1827 21.5134C18.1289 21.5996 18.0123 21.6181 17.9291 21.5586L17.824 21.4836C17.5815 21.8796 17.3048 22.4091 17.1201 22.8388L17.2449 22.8802C17.3427 22.9116 17.399 23.0061 17.3596 23.0996C17.1583 23.5788 16.9121 24.3371 16.8019 24.7887C16.7778 24.8871 16.6728 24.9402 16.5751 24.9088L16.4516 24.8693C16.3454 25.3199 16.2484 25.9074 16.2076 26.3722L16.339 26.3735C16.4419 26.3735 16.5251 26.4463 16.5172 26.5472C16.476 27.0643 16.4802 27.86 16.5172 28.3233C16.5253 28.4241 16.4419 28.5064 16.339 28.5064H16.2093C16.2498 28.967 16.342 29.5556 16.4493 30.0101L16.5749 29.9715C16.6728 29.9401 16.7747 29.9842 16.7987 30.0827C16.9222 30.5869 17.176 31.3424 17.3566 31.7716C17.3959 31.8651 17.3427 31.9689 17.2449 32L17.1213 32.0394C17.3045 32.4655 17.5771 32.9969 17.8218 33.3967L17.9293 33.3217C18.0125 33.2622 18.1233 33.273 18.177 33.3591C18.4527 33.8012 18.9315 34.4428 19.2379 34.796C19.3048 34.8732 19.2866 34.9877 19.2033 35.0472L19.0983 35.1224C19.4062 35.4715 19.8326 35.8945 20.1907 36.2L20.2694 36.0961C20.3297 36.0142 20.4386 35.9908 20.5168 36.0565C20.9178 36.393 21.5745 36.8575 21.977 37.1004C22.0647 37.1532 22.0834 37.2677 22.0231 37.3498L21.9467 37.4531C22.3494 37.6918 22.8874 37.9641 23.3241 38.1458L23.3662 38.023C23.3979 37.9267 23.4941 37.8714 23.5892 37.9101C24.0762 38.1083 24.8466 38.3505 25.3057 38.4589C25.4057 38.4827 25.4595 38.5858 25.4278 38.6822L25.3877 38.8037C25.8454 38.9081 26.4427 39.0037 26.915 39.0439L26.9163 38.9143C26.9163 38.8132 26.9903 38.7313 27.0927 38.7391C27.3514 38.7592 27.6785 38.7681 28 38.768V39.7341C27.7031 39.7352 27.3963 39.726 27.1024 39.7005C26.9999 39.6918 26.9157 39.5187 26.9157 39.4177C26.4082 39.3735 25.6816 39.2101 25.2861 39.111L25.2383 39.2556C25.2066 39.3519 25.1035 39.3977 25.0037 39.3733C24.4979 39.2499 23.8602 39.063 23.2964 38.8275C23.2017 38.788 23.145 38.6928 23.1768 38.5966L23.2229 38.4541C22.754 38.2578 22.0985 37.9291 21.7536 37.7146L21.6627 37.8377C21.6024 37.9194 21.49 37.9318 21.4028 37.8783C20.9605 37.6068 20.4127 37.2353 19.9503 36.8399C19.8728 36.7735 19.8487 36.6657 19.909 36.584L19.9977 36.4623C19.6134 36.1332 19.0932 35.6212 18.8326 35.3124L18.7075 35.4017C18.6244 35.4613 18.5136 35.4386 18.4474 35.3612C18.1119 34.9687 17.7077 34.4486 17.3923 33.9321C17.3392 33.8453 17.3502 33.7357 17.4334 33.6762L17.5558 33.5874C17.2937 33.1575 16.9598 32.5124 16.809 32.1394L16.662 32.1864C16.5641 32.2177 16.4659 32.1626 16.4272 32.0687C16.2315 31.5934 16.0102 30.9761 15.8725 30.3887C15.8495 30.29 15.8943 30.1892 15.9922 30.1578L16.1364 30.1108C16.022 29.6221 15.9072 28.9069 15.8808 28.5064H15.7261C15.6234 28.5064 15.5473 28.4241 15.54 28.3233C15.503 27.8116 15.4867 27.1572 15.54 26.5566C15.549 26.456 15.6234 26.3735 15.7261 26.3735L15.8782 26.3727C15.9232 25.8734 16.0384 25.1586 16.1391 24.7695L15.9922 24.7225C15.8944 24.6911 15.8479 24.5899 15.8727 24.4916C15.9981 23.9938 16.1881 23.3664 16.4274 22.8116C16.4675 22.7184 16.5643 22.6627 16.662 22.6939L16.8068 22.7392C17.0063 22.2779 17.3405 21.633 17.5583 21.2936L17.4333 21.204C17.3501 21.1446 17.3378 21.0342 17.392 20.9482C17.6678 20.513 18.0455 19.974 18.4473 19.519C18.5147 19.4427 18.6241 19.419 18.7074 19.4785L18.8309 19.5656C19.1655 19.1874 19.6858 18.6757 19.9997 18.4191L19.9088 18.2962C19.8483 18.2144 19.8713 18.1054 19.9499 18.0403C20.349 17.7102 20.8774 17.3123 21.4024 17.0019C21.4906 16.9497 21.602 16.9606 21.6625 17.0424L21.7527 17.1628C22.1896 16.905 22.8452 16.5763 23.2242 16.4279L23.1764 16.2833C23.1447 16.187 23.2006 16.0905 23.2959 16.0524C23.7791 15.8598 24.4065 15.6421 25.0032 15.5064C25.1035 15.4837 25.2063 15.528 25.2379 15.6242L25.2859 15.7661C25.7825 15.6537 26.5091 15.5406 26.9163 15.5145V15.3625C26.9163 15.2613 26.9999 15.1865 27.1024 15.1792C27.6224 15.1428 28.2874 15.1267 28.8978 15.1792C29.0001 15.1881 29.0837 15.2613 29.0837 15.3625L29.0846 15.5122C29.5921 15.5564 30.3187 15.6698 30.7139 15.7688L30.7617 15.6243C30.7936 15.528 30.8965 15.4822 30.9964 15.5066C31.5023 15.63 32.1398 15.8169 32.7037 16.0524C32.7984 16.0919 32.8551 16.1871 32.8233 16.2833L32.7772 16.4258C33.246 16.6221 33.9015 16.9509 34.2464 17.1653L34.3374 17.0422C34.3978 16.9603 34.51 16.9483 34.5974 17.0018C35.0397 17.2729 35.5875 17.6446 36.0497 18.04C36.1274 18.1065 36.1513 18.2142 36.091 18.2961L36.0025 18.4176C36.3866 18.7467 36.9068 19.2587 37.1676 19.5675L37.2925 19.4782C37.3756 19.4187 37.4864 19.4413 37.5526 19.5187C37.8881 19.9112 38.2924 20.4312 38.6079 20.9478C38.6609 21.0346 38.6498 21.1442 38.5667 21.2039L38.4442 21.2925C38.7063 21.7226 39.0404 22.3675 39.1912 22.7405L39.3382 22.6935C39.436 22.6622 39.5341 22.7174 39.5728 22.8111C39.7687 23.2865 39.9898 23.9039 40.1277 24.4912C40.1507 24.5899 40.1059 24.6907 40.008 24.7221L39.8639 24.7692C39.9781 25.2578 40.0929 25.973 40.1194 26.3735H40.2739C40.3766 26.3735 40.4528 26.4558 40.46 26.5566C40.4971 27.0683 40.5134 27.7227 40.46 28.3233C40.4512 28.4239 40.3766 28.5064 40.2739 28.5064L40.1218 28.5071C40.0769 29.0066 39.9616 29.7215 39.8609 30.1104L40.0079 30.1574C40.1057 30.1888 40.1523 30.29 40.1275 30.3884C40.0019 30.8861 39.8121 31.5136 39.5728 32.0684C39.5327 32.1615 39.4359 32.2172 39.338 32.186L39.1933 32.1407C38.9939 32.6021 38.6596 33.2469 38.4418 33.5864L38.5667 33.6759C38.65 33.7353 38.6623 33.8459 38.608 33.9317C38.3323 34.3669 37.9547 34.9059 37.5529 35.3608C37.4854 35.4372 37.3759 35.4609 37.2928 35.4014L37.1692 35.3143C36.8347 35.6923 36.3142 36.2043 36.0004 36.4608L36.0913 36.5838C36.1517 36.6656 36.1288 36.7747 36.05 36.8396C35.6511 37.1699 35.1227 37.5676 34.5977 37.878C34.5096 37.9302 34.3982 37.9194 34.3377 37.8375L34.2475 37.717C33.8104 37.9749 33.155 38.3036 32.7759 38.452L32.8236 38.5966C32.8555 38.6929 32.7994 38.7895 32.7041 38.8276C32.2211 39.0203 31.5936 39.238 30.9966 39.3735C30.8965 39.3962 30.794 39.3521 30.7622 39.2557L30.7141 39.1139C30.2177 39.2262 29.4909 39.3393 29.0837 39.3654V39.5175C29.0837 39.6186 29.0002 39.6934 28.8978 39.7005C28.6282 39.7194 28.3196 39.7329 28 39.7341V38.768Z" fill="#FACB4E"/>
<path fill-rule="evenodd" clip-rule="evenodd" d="M28.6651 15.9236C28.7412 15.9236 28.803 15.8798 28.803 15.8256V15.5025C28.803 15.4483 28.7412 15.4043 28.6651 15.4043H27.335C27.2589 15.4043 27.197 15.4483 27.197 15.5025V15.8256C27.197 15.8798 27.2589 15.9236 27.335 15.9236H28.6651Z" fill="#7DB63E"/>
<path fill-rule="evenodd" clip-rule="evenodd" d="M25.0159 16.2851C25.0885 16.262 25.1333 16.2015 25.1163 16.15L25.0149 15.8427C24.9978 15.7912 24.9253 15.7681 24.8529 15.7913L23.5879 16.1958C23.5155 16.219 23.4705 16.2795 23.4876 16.331L23.5889 16.6383C23.6059 16.6898 23.6784 16.7128 23.7509 16.6895L25.0159 16.2851Z" fill="#7DB63E"/>
<path fill-rule="evenodd" clip-rule="evenodd" d="M21.659 17.7387C21.7205 17.6946 21.7444 17.6233 21.7118 17.5794L21.5189 17.3181C21.4866 17.2743 21.4103 17.2745 21.3487 17.3184L20.2725 18.0879C20.2109 18.132 20.1872 18.2031 20.2196 18.2469L20.4125 18.5084C20.4448 18.5522 20.5212 18.552 20.5828 18.508L21.659 17.7387Z" fill="#7DB63E"/>
<path fill-rule="evenodd" clip-rule="evenodd" d="M18.9226 20.1417C18.9674 20.081 18.9676 20.0061 18.9231 19.9741L18.6574 19.7844C18.6129 19.7526 18.5405 19.7758 18.4957 19.8365L17.7138 20.8954C17.6692 20.956 17.6689 21.0311 17.7134 21.0629L17.979 21.2528C18.0236 21.2846 18.096 21.2612 18.1408 21.2006L18.9226 20.1417Z" fill="#7DB63E"/>
<path fill-rule="evenodd" clip-rule="evenodd" d="M17.0749 23.2592C17.0985 23.1879 17.0752 23.1165 17.0228 23.0999L16.7104 23C16.6581 22.9832 16.5967 23.0275 16.5731 23.0987L16.162 24.3436C16.1386 24.4149 16.1619 24.4861 16.2142 24.5029L16.5264 24.6028C16.5789 24.6196 16.6404 24.5753 16.664 24.5039L17.0749 23.2592Z" fill="#7DB63E"/>
<path fill-rule="evenodd" clip-rule="evenodd" d="M16.2968 26.7859C16.2968 26.7109 16.2523 26.6501 16.1971 26.6501H15.8688C15.8138 26.6501 15.7691 26.7109 15.7691 26.7859V28.0947C15.7691 28.1697 15.8139 28.2305 15.8688 28.2305H16.1971C16.2523 28.2305 16.2968 28.1697 16.2968 28.0947V26.7859Z" fill="#7DB63E"/>
<path fill-rule="evenodd" clip-rule="evenodd" d="M16.6643 30.3765C16.6408 30.3052 16.5792 30.261 16.5268 30.2778L16.2145 30.3775C16.1622 30.3943 16.1389 30.4657 16.1623 30.5369L16.5734 31.7818C16.597 31.8531 16.6586 31.8973 16.7109 31.8805L17.0231 31.7807C17.0756 31.7639 17.0989 31.6927 17.0753 31.6213L16.6643 30.3765Z" fill="#7DB63E"/>
<path fill-rule="evenodd" clip-rule="evenodd" d="M18.1414 33.6797C18.0966 33.619 18.0242 33.5958 17.9796 33.6276L17.7142 33.8176C17.6696 33.8493 17.6698 33.9242 17.7144 33.9849L18.4964 35.0438C18.5412 35.1044 18.6136 35.1278 18.6582 35.0959L18.9237 34.9061C18.9682 34.8743 18.968 34.7991 18.9234 34.7386L18.1414 33.6797Z" fill="#7DB63E"/>
<path fill-rule="evenodd" clip-rule="evenodd" d="M20.5836 36.3721C20.522 36.328 20.4457 36.3278 20.4134 36.3717L20.2204 36.633C20.1881 36.6769 20.2118 36.7482 20.2734 36.7923L21.3496 37.5614C21.4112 37.6054 21.4873 37.6057 21.5198 37.5619L21.7127 37.3006C21.7451 37.2567 21.7214 37.1854 21.6596 37.1413L20.5836 36.3721Z" fill="#7DB63E"/>
<path fill-rule="evenodd" clip-rule="evenodd" d="M23.7518 38.19C23.6792 38.1668 23.6068 38.1899 23.5897 38.2414L23.4884 38.5487C23.4712 38.6002 23.5162 38.6607 23.5887 38.684L24.8537 39.0883C24.9261 39.1114 24.9987 39.0884 25.0158 39.0369L25.1172 38.7297C25.1341 38.6781 25.0893 38.6176 25.0167 38.5945L23.7518 38.19Z" fill="#7DB63E"/>
<path fill-rule="evenodd" clip-rule="evenodd" d="M27.3358 38.9557C27.2596 38.9557 27.1978 38.9997 27.1978 39.0538V39.3768C27.1978 39.4309 27.2596 39.475 27.3358 39.475L28.6657 39.4748C28.7419 39.4748 28.8037 39.4309 28.8037 39.3768L28.8035 39.0537C28.8035 38.9995 28.7419 38.9556 28.6657 38.9556L27.3358 38.9557Z" fill="#7DB63E"/>
<path fill-rule="evenodd" clip-rule="evenodd" d="M30.9847 38.5941C30.9123 38.6172 30.8672 38.6778 30.8842 38.7293L30.9857 39.0365C31.0027 39.0879 31.0753 39.111 31.1477 39.0877L32.4127 38.6834C32.4851 38.6602 32.5302 38.5996 32.5131 38.548L32.4116 38.2409C32.3946 38.1892 32.3221 38.1662 32.2495 38.1895L30.9847 38.5941Z" fill="#7DB63E"/>
<path fill-rule="evenodd" clip-rule="evenodd" d="M34.3414 37.1405C34.2799 37.1844 34.2562 37.2558 34.2883 37.2995L34.4814 37.5609C34.5137 37.6047 34.5899 37.6046 34.6517 37.5605L35.7277 36.7912C35.7892 36.7471 35.813 36.6758 35.7805 36.6319L35.5876 36.3706C35.5552 36.3268 35.479 36.3271 35.4174 36.3712L34.3414 37.1405Z" fill="#7DB63E"/>
<path fill-rule="evenodd" clip-rule="evenodd" d="M37.0773 34.7372C37.0325 34.798 37.0324 34.8729 37.0771 34.9047L37.3425 35.0946C37.3871 35.1264 37.4595 35.103 37.5043 35.0426L38.2861 33.9835C38.3308 33.923 38.3309 33.8478 38.2864 33.8162L38.0209 33.6262C37.9762 33.5944 37.9038 33.6178 37.859 33.6784L37.0773 34.7372Z" fill="#7DB63E"/>
<path fill-rule="evenodd" clip-rule="evenodd" d="M38.9248 31.6199C38.9012 31.6913 38.9247 31.7625 38.9769 31.7793L39.2892 31.8791C39.3417 31.8958 39.403 31.8517 39.4265 31.7803L39.8376 30.5354C39.8612 30.4643 39.8377 30.3929 39.7853 30.3761L39.4732 30.2764C39.4208 30.2598 39.3594 30.3037 39.3357 30.3751L38.9248 31.6199Z" fill="#7DB63E"/>
<path fill-rule="evenodd" clip-rule="evenodd" d="M39.7027 28.0932C39.7028 28.1683 39.7473 28.229 39.8024 28.229H40.1308C40.1858 28.229 40.2304 28.1681 40.2304 28.0932V26.7845C40.2302 26.7096 40.1855 26.6489 40.1306 26.6489H39.8023C39.7472 26.6489 39.7025 26.7096 39.7025 26.7847L39.7027 28.0932Z" fill="#7DB63E"/>
<path fill-rule="evenodd" clip-rule="evenodd" d="M39.3351 24.5029C39.3586 24.5742 39.4202 24.6184 39.4724 24.6016L39.7847 24.5018C39.8371 24.485 39.8603 24.4136 39.8368 24.3424L39.4259 23.0978C39.4023 23.0264 39.3407 22.9821 39.2883 22.9989L38.976 23.0987C38.9237 23.1155 38.9003 23.1869 38.924 23.2582L39.3351 24.5029Z" fill="#7DB63E"/>
<path fill-rule="evenodd" clip-rule="evenodd" d="M37.8578 21.1999C37.9027 21.2606 37.975 21.2839 38.0197 21.252L38.2852 21.0622C38.3296 21.0303 38.3296 20.9552 38.2848 20.8947L37.5028 19.8359C37.4581 19.7753 37.3857 19.7519 37.341 19.7838L37.0754 19.9737C37.031 20.0056 37.0312 20.0805 37.076 20.1411L37.8578 21.1999Z" fill="#7DB63E"/>
<path fill-rule="evenodd" clip-rule="evenodd" d="M35.4156 18.5079C35.4773 18.552 35.5535 18.5521 35.5858 18.5081L35.7788 18.2469C35.8111 18.2031 35.7874 18.1318 35.7258 18.0877L34.6494 17.3186C34.588 17.2745 34.5119 17.2743 34.4794 17.3181L34.2865 17.5795C34.254 17.6233 34.2778 17.6946 34.3396 17.7387L35.4156 18.5079Z" fill="#7DB63E"/>
<path fill-rule="evenodd" clip-rule="evenodd" d="M32.2473 16.6901C32.3199 16.7133 32.3925 16.6902 32.4094 16.6387L32.5108 16.3314C32.5279 16.28 32.4829 16.2194 32.4104 16.1963L31.1454 15.792C31.0731 15.7688 31.0006 15.7919 30.9835 15.8434L30.8821 16.1507C30.8651 16.2021 30.9099 16.2627 30.9825 16.2859L32.2473 16.6901Z" fill="#7DB63E"/>
<path fill-rule="evenodd" clip-rule="evenodd" d="M27.9673 17.6799C27.4047 17.9424 27.3433 17.898 27.45 18.1C27.5567 18.3019 27.684 18.1889 28.1478 17.9869C28.504 17.8319 28.7308 17.7849 28.6323 17.5587C28.5337 17.3324 28.4718 17.4443 27.9673 17.6799Z" fill="#FFFFFE"/>
<path fill-rule="evenodd" clip-rule="evenodd" d="M25.6517 18.0516C25.3689 18.3389 25.4383 18.31 25.6682 18.5444C25.8982 18.7786 25.9145 18.7867 26.1198 18.5767C26.325 18.3667 26.4236 18.3586 26.1773 18.0758C25.9309 17.793 25.9063 17.793 25.6517 18.0516Z" fill="#FFFFFE"/>
<path fill-rule="evenodd" clip-rule="evenodd" d="M24.7431 17.9396C24.4749 18.2014 24.5407 18.1751 24.7588 18.3886C24.9766 18.6021 24.9924 18.6094 25.1869 18.418C25.3817 18.2266 25.475 18.2193 25.2415 17.9616C25.0079 17.704 24.9846 17.704 24.7431 17.9396Z" fill="#FFFFFE"/>
<path fill-rule="evenodd" clip-rule="evenodd" d="M28.3118 18.7222C28.0146 18.6144 27.5828 18.3981 26.908 18.5525C26.5549 18.6333 26.3168 18.9888 26.7438 19.2797C27.1708 19.5706 27.6305 19.9826 27.8934 20.2412C28.156 20.4997 28.8237 20.597 29.285 20.2856C29.6023 20.0713 29.6175 19.6191 29.2563 19.4169C28.8949 19.215 28.63 19.4323 28.5541 19.6109C28.4516 19.8534 28.7636 20.0392 28.7923 19.8492C28.8336 19.5772 29.278 19.5341 29.01 19.8937C28.9196 20.015 28.5664 20.2976 28.1807 20.023C27.7948 19.7483 27.7045 19.7159 27.4088 19.4978C27.1133 19.2797 26.5056 18.8595 27.4745 18.8352C28.4434 18.811 27.9096 19.32 27.22 19.5867C26.5303 19.8534 26.1198 19.5383 25.5532 19.2474C24.973 18.9494 24.8306 19.3442 24.7074 19.6513C24.5843 19.9584 24.1081 19.8534 23.9192 19.7645C23.7303 19.6756 23.3936 19.6836 23.7221 20.1361C24.0507 20.5886 24.8568 20.2353 24.9702 19.9906C25.1426 19.6191 25.3228 19.4725 26.0458 19.8937C26.4482 20.1281 27.2035 20.1361 27.5814 19.7725C27.959 19.4089 28.2545 19.2474 28.3941 19.1828C28.5336 19.1181 28.624 18.8352 28.3118 18.7222Z" fill="#FFFFFE"/>
<path fill-rule="evenodd" clip-rule="evenodd" d="M29.9378 18.0435C29.868 17.8184 29.3644 18.0933 29.4041 18.2697C29.6093 19.1828 29.8557 19.9906 30.1184 20.427C30.3812 20.8632 30.8246 20.9279 31.5307 20.5723C32.2369 20.2169 32.9101 19.8614 32.3188 19.4736C31.7278 19.0858 30.5783 19.1828 30.3154 19.9261C30.0528 20.6693 29.8392 21.5419 30.0691 21.639C30.2991 21.7357 30.529 21.146 30.5784 20.6612C30.6276 20.1764 30.5536 19.7645 31.3254 19.6836C32.0973 19.603 32.1711 19.8452 31.8098 20.0715C31.4485 20.2976 30.5946 20.637 30.4798 20.1037C30.3648 19.5706 30.0856 18.5202 29.9378 18.0435Z" fill="#FFFFFE"/>
<path fill-rule="evenodd" clip-rule="evenodd" d="M31.6209 20.8632C31.3722 21.0867 31.3664 21.1784 31.6128 21.3641C31.8591 21.5499 31.9001 21.4612 32.0563 21.3157C32.2121 21.1702 32.2614 21.0571 32.0726 20.8956C31.8838 20.734 31.8097 20.6935 31.6209 20.8632Z" fill="#FFFFFE"/>
<path fill-rule="evenodd" clip-rule="evenodd" d="M32.8034 21.841C32.4823 22.309 31.9415 22.107 31.777 22.3338C31.6539 22.5035 31.5956 23.3173 31.8508 22.9963C32.2943 22.4386 32.7951 22.5519 32.902 22.3499C33.0087 22.1479 33.0251 21.5177 32.8034 21.841Z" fill="#FFFFFE"/>
<path fill-rule="evenodd" clip-rule="evenodd" d="M24.5515 21.3965C24.7568 21.5743 25.1855 21.9349 25.3891 21.5499C25.4957 21.348 25.6025 21.2915 25.7913 21.4612C25.9802 21.6308 26.3415 21.7116 26.3415 21.3399C26.3415 21.1137 26.4647 21.0248 26.6289 21.2915C26.7932 21.558 26.5385 22.5842 25.66 21.8329C25.0031 22.4872 24.5679 22.0832 24.4858 21.8813C24.5186 21.7116 24.5515 21.4854 24.5515 21.3965Z" fill="#FFFFFE"/>
<path fill-rule="evenodd" clip-rule="evenodd" d="M21.571 20.9925C21.2948 21.2869 21.4068 21.2995 21.5627 21.4854C21.7188 21.6712 21.8009 21.8005 22.0637 21.5904C22.3263 21.3804 22.3592 21.2752 22.1292 21.0329C21.8995 20.7904 21.768 20.7825 21.571 20.9925Z" fill="#FFFFFE"/>
<path fill-rule="evenodd" clip-rule="evenodd" d="M22.7861 21.146C22.4731 21.413 22.4822 21.4451 22.778 21.744C23.0735 22.0429 23.0735 21.9944 23.3281 21.768C23.5826 21.5419 23.6155 21.5016 23.3281 21.2188C23.0407 20.936 23.0324 20.936 22.7861 21.146Z" fill="#FFFFFE"/>
<path fill-rule="evenodd" clip-rule="evenodd" d="M20.3968 23.0448C20.3968 23.7241 21.1194 24.2082 21.4641 23.4003C21.8386 22.5231 22.511 21.9716 23.0735 22.6892C23.517 23.2548 24.2698 23.6937 24.7322 23.2386C25.0606 22.9155 25.3069 22.9639 25.6846 23.2548C26.0623 23.5456 26.7133 23.5196 26.6699 22.8992C26.6535 22.665 26.752 22.5035 26.9409 22.8508C27.1297 23.1983 26.9258 23.8993 26.2594 23.9497C26.0458 23.9658 25.7011 23.99 25.4793 23.7154C25.2576 23.4406 25.1377 23.4685 24.88 23.6911C24.5434 23.9819 23.6028 23.973 23.2295 23.4972C22.6467 22.7539 22.3263 22.673 22.0143 23.2548C21.7023 23.8365 21.1988 24.6579 20.479 23.9497C20.1094 23.5861 20.1997 23.2306 20.2078 23.1013C20.2161 22.972 20.3968 22.8911 20.3968 23.0448Z" fill="#FFFFFE"/>
<path fill-rule="evenodd" clip-rule="evenodd" d="M22.4905 23.5698C21.9022 23.8059 21.7458 24.491 22.2607 24.7899C22.581 24.9757 22.7206 24.5151 22.4905 24.4021C22.2607 24.2889 22.3346 24.0142 22.5891 23.8122C22.8387 23.6141 22.7122 23.4811 22.4905 23.5698Z" fill="#FFFFFE"/>
<path fill-rule="evenodd" clip-rule="evenodd" d="M27.3531 28.4641C26.8056 27.9143 25.6406 27.7553 24.88 27.7953C23.9603 27.8439 23.3035 27.23 23.1063 26.4705C23.0421 26.223 22.7782 25.9591 22.86 26.5029C22.9914 27.3755 23.6812 27.9733 24.88 28.07C26.6807 28.2158 27.8683 28.8033 27.1791 30.6555C26.7519 31.803 24.5805 32.446 23.4676 31.2211C22.2196 29.8476 22.7783 28.1383 24.5679 26.4382C25.0442 25.9857 25.4712 25.7109 25.7832 25.614C26.0952 25.517 26.6526 24.9713 25.9966 24.8222C25.1427 24.6284 23.8629 24.7439 23.0407 25.1696C22.8846 25.2504 22.9093 25.6626 23.2623 25.6545C23.6155 25.6465 23.8619 25.6465 24.1903 26.0665C24.3852 26.316 24.7979 26.7024 25.3524 26.9546C24.1043 27.504 24.1739 29.2012 25.2905 30.0901C26.4072 30.9787 28.5545 30.8721 29.7736 29.6375C32.0398 27.3431 29.7844 25.7322 30.8901 23.4003C31.0052 23.1578 31.1038 22.9639 30.9231 22.8185C30.7424 22.673 30.5618 22.2368 30.4797 21.9621C30.3976 21.6874 30.3049 21.7366 30.2498 22.1399C29.7736 25.6302 31.3172 27.5046 29.7406 29.0559C28.0324 30.7367 26.6693 30.3599 25.5696 29.5728C25.2084 29.3143 24.1577 27.9073 25.7342 27.0995C26.0201 27.1835 26.3345 27.2244 26.6699 27.1977C27.8852 27.1007 28.517 25.9959 28.1313 24.4022C28.0492 24.0628 27.793 23.4045 28.2134 23.3356C28.4106 23.3033 28.3119 23.1739 28.1971 22.98C28.0821 22.7861 27.9179 22.3499 27.9015 22.0913C27.8852 21.8329 27.7741 21.9307 27.6881 22.2368C27.4746 22.9963 27.5074 23.6103 27.6716 24.3698C27.8358 25.1293 27.9525 26.183 27.1462 26.6644C25.6846 27.5369 24.5021 25.6948 24.0917 25.5818C23.7791 25.4956 23.5338 25.2261 24.1245 25.1293C24.6172 25.0484 25.2084 25.0646 25.4383 25.0484C25.6682 25.0323 25.964 25.1944 25.5368 25.3393C24.5844 25.6626 23.829 26.519 23.2869 27.1977C22.7452 27.8763 21.6448 28.7811 20.8401 28.1348C20.0355 27.4883 20.4162 26.6798 20.8072 26.1796C20.9715 25.9695 20.9879 25.8402 20.6924 25.7434C20.3967 25.6465 20.047 25.2633 20.7416 24.5798C20.8566 24.4668 20.6924 24.305 20.5609 24.4184C19.947 24.9469 19.707 25.5332 20.479 26.0504C19.8713 26.8422 19.8877 27.9894 20.4296 28.4417C20.9715 28.8943 22.0389 28.9104 22.6302 28.3287C22.0883 29.7182 22.3838 32.1745 24.8964 32.2877C27.4088 32.4009 28.0398 30.1431 27.6059 28.8619C28.9197 28.0541 30.529 27.7631 31.5144 27.0521C32.4996 26.3412 33.3798 25.5671 33.0251 24.0789C32.7132 22.77 31.4239 23.3033 31.2926 23.8445C31.1904 24.2658 31.3068 24.8397 32.089 25C32.4831 25.0807 32.3788 24.7992 32.089 24.6526C31.8016 24.5072 31.5471 23.9981 31.7935 23.7395C32.0398 23.4811 32.6146 23.4325 32.7459 24.4668C32.8772 25.5009 31.9864 26.2763 31.465 26.6966C30.4632 27.5046 28.348 27.9047 27.3531 28.4641Z" fill="#FFFFFE"/>
<path fill-rule="evenodd" clip-rule="evenodd" d="M21.5135 25.6626C21.2744 25.8192 21.1275 25.8322 21.3739 26.1635C21.6202 26.4947 21.6448 26.3654 21.8418 26.2361C22.0389 26.1069 22.1785 26.0988 21.9733 25.7757C21.768 25.4524 21.6859 25.5493 21.5135 25.6626Z" fill="#FFFFFE"/>
<path fill-rule="evenodd" clip-rule="evenodd" d="M21.1932 26.6644C20.9139 26.8744 20.9387 26.9633 21.1193 27.1977C21.2999 27.4319 21.3574 27.4641 21.6284 27.2381C21.8994 27.0118 21.8583 26.9552 21.6859 26.7452C21.5134 26.5352 21.4725 26.4543 21.1932 26.6644Z" fill="#FFFFFE"/>
<path fill-rule="evenodd" clip-rule="evenodd" d="M23.8781 29.5245C23.6552 29.695 23.6812 29.7829 23.829 29.9931C23.9769 30.2031 24.0588 30.2355 24.2559 30.0415C24.4529 29.8476 24.5352 29.7992 24.3216 29.5568C24.1082 29.3143 24.026 29.4114 23.8781 29.5245Z" fill="#FFFFFE"/>
<path fill-rule="evenodd" clip-rule="evenodd" d="M32.1711 24.297C32.2445 24.3487 32.3067 24.3778 32.3476 24.3456C32.3888 24.3132 32.3927 24.2042 32.3559 24.1436C32.3188 24.0831 32.2163 24.0345 32.1506 24.0992C32.0849 24.1637 32.1136 24.2567 32.1711 24.297Z" fill="#FFFFFE"/>
<path fill-rule="evenodd" clip-rule="evenodd" d="M32.0727 29.6699C31.6784 30.5749 30.2663 31.9967 29.1496 31.4152C27.9496 30.7901 28.7226 29.2497 29.0837 28.0863C29.4451 26.9229 29.166 24.5314 28.9524 23.8527C28.739 23.1739 28.7555 22.4469 28.8539 21.9135C28.9524 21.3804 29.1002 21.639 29.1331 21.9621C29.166 22.2852 29.2646 23.0286 29.4451 23.1739C29.6258 23.3194 29.8557 23.4486 29.6258 23.6427C29.3957 23.8366 29.3794 24.4668 29.5108 25.4687C29.6422 26.4705 29.7079 27.7308 29.2809 28.6358C28.8539 29.5407 28.7226 30.6394 29.4451 30.9626C30.1676 31.2858 30.8575 30.801 31.7113 29.282C31.153 28.1833 30.9559 26.519 31.2514 25.7109C31.373 25.3789 31.7278 25.3393 31.6293 25.8726C31.5307 26.4058 31.5471 28.4417 32.2697 29.2175C32.9922 29.9931 33.8019 29.9215 33.9447 28.7973C34.1418 27.2461 33.9992 24.3638 33.5835 22.9316C33.5178 22.7054 33.5013 22.5277 33.6983 22.3499C33.8954 22.1722 34.0761 21.8652 34.0924 22.3499C34.1088 22.8346 34.0166 23.0656 34.5851 23.7395C37.9515 27.7308 34.0761 34.0974 27.0149 32.7078C26.2629 32.5598 26.7554 32.3906 27.376 32.4816C30.4632 32.934 32.8242 31.8199 34.2402 30.1548C35.5162 28.6541 35.981 25.5656 34.306 24.3698C34.4703 27.0199 34.6672 29.2497 33.8461 29.9284C33.0251 30.6071 32.4339 30.0576 32.0727 29.6699Z" fill="#FFFFFE"/>
<path fill-rule="evenodd" clip-rule="evenodd" d="M32.8772 27.0036C32.5331 27.5041 32.5534 28.2306 33.1483 28.4175C33.5341 28.5387 33.5178 28.1428 33.2878 28.0055C33.0579 27.8681 33.0066 27.6016 33.1646 27.3188C33.255 27.1572 33.0662 26.7289 32.8772 27.0036Z" fill="#FFFFFE"/>
<path fill-rule="evenodd" clip-rule="evenodd" d="M28 37.4949C33.6434 37.4949 38.2186 32.9931 38.2186 27.44C38.2186 24.3921 36.8416 21.6674 34.6652 19.8233C35.9715 21.3465 36.7617 23.3289 36.7617 25.4884C36.7617 30.3044 32.8388 34.2087 28 34.2087C23.1613 34.2087 19.2383 30.3044 19.2383 25.4884C19.2383 23.3289 20.0285 21.3465 21.3349 19.8233C19.1584 21.6674 17.7816 24.3921 17.7816 27.44C17.7816 32.9931 22.3566 37.4949 28 37.4949Z" fill="#FFFFFE"/>
<path fill-rule="evenodd" clip-rule="evenodd" d="M27.2663 11.8614C26.9228 9.99124 24.1375 9.87154 23.6905 9.57992C23.1862 9.25106 23.2525 9.57348 23.4533 10.085C23.9604 11.3778 25.6879 11.9237 26.4775 12.0575C27.1226 12.1668 27.331 12.2136 27.2663 11.8614Z" fill="#FFFFFE"/>
<path fill-rule="evenodd" clip-rule="evenodd" d="M28.1053 11.9084C28.3752 10.0089 25.6254 9.09511 25.2902 8.67693C24.9122 8.20527 24.8588 8.49199 25.0186 9.02259C25.3616 10.1615 26.5721 11.4786 27.2863 11.8518C27.8699 12.1569 28.0546 12.2662 28.1053 11.9084Z" fill="#FFFFFE"/>
<path fill-rule="evenodd" clip-rule="evenodd" d="M30.3861 13.0248C30.6276 10.7316 28.3941 10.376 27.8041 9.65888C27.4235 9.19646 27.3889 9.45 27.5138 9.98424C27.782 11.1314 28.8968 12.5069 29.5797 12.9193C30.1378 13.256 30.3488 13.3809 30.3861 13.0248Z" fill="#FFFFFE"/>
<path fill-rule="evenodd" clip-rule="evenodd" d="M29.6852 12.5283C27.3591 11.0263 25.7271 11.8618 25.0608 11.7925C24.4032 11.7243 24.1982 12.1296 25.3178 12.7354C26.6594 13.4611 28.5647 13.3601 29.3183 13.0714C30.0718 12.7828 29.8505 12.6351 29.6852 12.5283Z" fill="#FFFFFE"/>
<path fill-rule="evenodd" clip-rule="evenodd" d="M33.1892 13.5432C32.4852 11.0495 30.8254 11.4533 30.3319 11.1516C29.8557 10.8608 29.7935 10.9343 29.9049 11.4909C30.102 12.4767 31.8071 13.5547 32.6638 13.8825C32.9593 13.9957 33.3534 14.1249 33.1892 13.5432Z" fill="#FFFFFE"/>
<path fill-rule="evenodd" clip-rule="evenodd" d="M32.8766 13.9541C30.859 12.3669 29.3037 13.5673 28.6788 13.3776C28.241 13.2447 28.4395 13.5618 28.6153 13.6819C29.9059 14.5649 31.4911 15.0342 32.7201 14.497C33.1899 14.2916 33.2256 14.2285 32.8766 13.9541Z" fill="#FFFFFE"/>
<path fill-rule="evenodd" clip-rule="evenodd" d="M37.1962 15.5792C37.2291 14.0118 33.9284 13.3654 33.255 12.3959C32.8468 11.8082 32.4745 12.1313 32.6967 13.0421C32.9922 14.2541 35.2585 15.5953 36.4737 15.8539C37.2173 16.0121 37.1925 15.7569 37.1962 15.5792Z" fill="#FFFFFE"/>
<path fill-rule="evenodd" clip-rule="evenodd" d="M37.0977 15.8378C35.0182 14.0189 33.28 14.6118 32.6309 14.448C31.9905 14.2864 31.7278 14.6581 32.7459 15.4176C33.9661 16.3276 35.866 16.5003 36.6542 16.3225C37.4426 16.1448 37.2454 15.967 37.0977 15.8378Z" fill="#FFFFFE"/>
<path fill-rule="evenodd" clip-rule="evenodd" d="M40.816 18.5444C40.2022 15.8669 38.3436 15.3317 37.895 14.8214C37.4521 14.318 36.9916 14.4643 37.3756 15.6695C37.8359 17.1139 39.345 18.3605 40.1298 18.6766C40.9144 18.9928 40.8597 18.7348 40.816 18.5444Z" fill="#FFFFFE"/>
<path fill-rule="evenodd" clip-rule="evenodd" d="M40.7796 18.902C39.278 16.5017 37.2914 16.5899 36.6826 16.241C36.0823 15.8967 35.6843 16.1898 36.465 17.235C37.4003 18.4877 39.2881 19.2048 40.1574 19.2551C41.0268 19.3055 40.8863 19.0726 40.7796 18.902Z" fill="#FFFFFE"/>
<path fill-rule="evenodd" clip-rule="evenodd" d="M42.7303 21.7519C43.582 19.0289 41.5959 18.0165 41.3838 17.5668C41.1702 17.1143 40.9333 17.1142 40.7926 17.5991C40.2342 19.522 42.0572 21.4288 42.3363 21.7843C42.6155 22.1399 42.6646 21.9621 42.7303 21.7519Z" fill="#FFFFFE"/>
<path fill-rule="evenodd" clip-rule="evenodd" d="M42.3035 22.5114C41.6349 19.4417 39.8082 19.6193 39.3968 19.1989C38.9698 18.7625 38.9135 19.0704 38.9862 19.619C39.1832 21.1057 40.996 22.1339 41.8271 22.6246C42.0736 22.77 42.4021 22.9639 42.3035 22.5114Z" fill="#FFFFFE"/>
<path fill-rule="evenodd" clip-rule="evenodd" d="M44.0606 26.0827C45.3011 23.2105 43.8308 21.2673 43.3708 20.847C42.9111 20.427 42.6163 20.2468 42.7633 20.847C42.9767 21.7198 42.2706 23.9981 43.3544 25.6465C43.7157 26.1957 43.7814 26.729 44.0606 26.0827Z" fill="#FFFFFE"/>
<path fill-rule="evenodd" clip-rule="evenodd" d="M43.3872 26.6483C43.6829 24.887 42.6482 23.287 41.5482 22.6569C40.9024 22.2872 40.8799 22.364 40.8911 22.9155C40.924 24.5314 42.4842 25.9049 42.944 26.6483C43.3848 27.3608 43.3568 26.83 43.3872 26.6483Z" fill="#FFFFFE"/>
<path fill-rule="evenodd" clip-rule="evenodd" d="M43.0971 31.2411C42.1956 27.9066 44.1138 26.0061 44.6839 25.6169C45.2538 25.2279 45.6048 25.0761 45.3487 25.7104C44.9765 26.6326 45.3874 29.2348 43.9393 30.8722C43.4566 31.4178 43.2999 31.9915 43.0971 31.2411Z" fill="#FFFFFE"/>
<path fill-rule="evenodd" clip-rule="evenodd" d="M43.3233 30.5232C44.084 27.6216 42.4057 25.9834 41.9082 25.6491C41.4105 25.3148 41.1046 25.1852 41.3311 25.7345C41.6606 26.5331 41.321 28.7956 42.5894 30.2082C43.0123 30.679 43.152 31.176 43.3233 30.5232Z" fill="#FFFFFE"/>
<path fill-rule="evenodd" clip-rule="evenodd" d="M42.3776 29.1607C40.992 30.6246 40.9501 32.7491 41.5801 34.0085C41.9499 34.7474 42.0194 34.6895 42.3561 34.168C43.3435 32.6395 42.7526 30.4056 42.7913 29.4311C42.8289 28.497 42.5206 29.0097 42.3776 29.1607Z" fill="#FFFFFE"/>
<path fill-rule="evenodd" clip-rule="evenodd" d="M44.6445 31.4801C44.6429 33.4806 43.398 35.127 42.0641 35.6251C41.2816 35.9173 41.2848 35.8306 41.3862 35.2207C41.7615 32.9664 43.5074 32.1387 44.1543 31.4002C44.7744 30.6919 44.6446 31.2738 44.6445 31.4801Z" fill="#FFFFFE"/>
<path fill-rule="evenodd" clip-rule="evenodd" d="M39.8893 37.4587C42.1228 35.4549 40.9405 34.0329 41.0391 32.7239C41.092 32.0201 40.8005 32.2048 40.5464 32.4492C39.1011 33.8388 39.0479 36.3066 39.3476 37.2646C39.4789 37.6848 39.6808 37.6459 39.8893 37.4587Z" fill="#FFFFFE"/>
<path fill-rule="evenodd" clip-rule="evenodd" d="M42.8928 36.1503C42.1597 38.3637 40.1798 39.7452 38.5215 39.8241C37.5486 39.8705 37.5838 39.7755 37.9191 39.1366C39.1588 36.7744 41.3935 36.4767 42.3796 35.8882C43.3248 35.324 42.9685 35.9219 42.8928 36.1503Z" fill="#FFFFFE"/>
<path fill-rule="evenodd" clip-rule="evenodd" d="M36.7833 40.326C39.6963 38.8766 39.1104 36.4875 39.6598 35.8802C40.0448 35.4549 39.5702 35.513 39.3374 35.6486C37.6288 36.6451 36.2486 38.192 36.2311 39.8639C36.2246 40.5031 36.2795 40.5766 36.7833 40.326Z" fill="#FFFFFE"/>
<path fill-rule="evenodd" clip-rule="evenodd" d="M32.7775 42.9983C36.4737 43.5666 38.1816 40.8197 39.2646 40.5639C39.8273 40.4309 39.4095 40.2205 39.1408 40.1905C36.6707 39.9147 33.552 41.0406 32.6046 42.3058C32.2192 42.8203 32.2197 42.9127 32.7775 42.9983Z" fill="#FFFFFE"/>
<path fill-rule="evenodd" clip-rule="evenodd" d="M36.5281 38.6806C35.795 41.0773 33.0268 43.0311 30.9401 43.1936C29.9691 43.2694 29.9597 43.1507 30.3178 42.5235C32.0051 39.5683 34.8818 39.0663 35.9049 38.3067C36.7876 37.6516 36.5982 38.4506 36.5281 38.6806Z" fill="#FFFFFE"/>
<path fill-rule="evenodd" clip-rule="evenodd" d="M28.7339 11.8614C29.0772 9.99124 31.8625 9.87154 32.3097 9.57992C32.8136 9.25106 32.7476 9.57348 32.5469 10.085C32.0398 11.3778 30.3123 11.9237 29.5226 12.0575C28.8773 12.1668 28.6691 12.2136 28.7339 11.8614Z" fill="#FFFFFE"/>
<path fill-rule="evenodd" clip-rule="evenodd" d="M27.8947 11.9084C27.6249 10.0089 30.3747 9.09511 30.7099 8.67693C31.0878 8.20527 31.1413 8.49199 30.9815 9.02259C30.6385 10.1615 29.428 11.4786 28.7138 11.8518C28.1302 12.1569 27.9455 12.2662 27.8947 11.9084Z" fill="#FFFFFE"/>
<path fill-rule="evenodd" clip-rule="evenodd" d="M25.6137 13.0248C25.3726 10.7316 27.6059 10.376 28.196 9.65888C28.5766 9.19646 28.611 9.45 28.4861 9.98424C28.2179 11.1314 27.1032 12.5069 26.4203 12.9193C25.8621 13.256 25.6513 13.3809 25.6137 13.0248Z" fill="#FFFFFE"/>
<path fill-rule="evenodd" clip-rule="evenodd" d="M26.3147 12.5283C28.641 11.0263 30.273 11.8618 30.9393 11.7925C31.5968 11.7243 31.8019 12.1296 30.6823 12.7354C29.3407 13.4611 27.4353 13.3601 26.6818 13.0714C25.9282 12.7828 26.1494 12.6351 26.3147 12.5283Z" fill="#FFFFFE"/>
<path fill-rule="evenodd" clip-rule="evenodd" d="M22.8107 13.5432C23.5147 11.0495 25.1745 11.4533 25.6682 11.1516C26.1444 10.8608 26.2064 10.9343 26.0952 11.4909C25.8981 12.4767 24.193 13.5547 23.3363 13.8825C23.0407 13.9957 22.6467 14.1249 22.8107 13.5432Z" fill="#FFFFFE"/>
<path fill-rule="evenodd" clip-rule="evenodd" d="M23.1233 13.9541C25.1411 12.3669 26.6963 13.5673 27.3214 13.3776C27.7591 13.2447 27.5607 13.5618 27.3848 13.6819C26.0941 14.5649 24.5087 15.0342 23.28 14.497C22.8101 14.2916 22.7743 14.2285 23.1233 13.9541Z" fill="#FFFFFE"/>
<path fill-rule="evenodd" clip-rule="evenodd" d="M18.8038 15.5792C18.771 14.0118 22.0718 13.3654 22.7452 12.3959C23.1532 11.8082 23.5256 12.1313 23.3035 13.0421C23.0078 14.2541 20.7416 15.5953 19.5265 15.8539C18.7828 16.0121 18.8077 15.7569 18.8038 15.5792Z" fill="#FFFFFE"/>
<path fill-rule="evenodd" clip-rule="evenodd" d="M18.9024 15.8378C20.9819 14.0189 22.72 14.6118 23.3692 14.448C24.0096 14.2864 24.2724 14.6581 23.2542 15.4176C22.0341 16.3276 20.134 16.5003 19.3458 16.3225C18.5575 16.1448 18.7546 15.967 18.9024 15.8378Z" fill="#FFFFFE"/>
<path fill-rule="evenodd" clip-rule="evenodd" d="M15.1839 18.5444C15.7979 15.8669 17.6564 15.3317 18.1051 14.8214C18.548 14.318 19.0084 14.4643 18.6244 15.6695C18.1641 17.1139 16.6552 18.3605 15.8704 18.6766C15.0856 18.9928 15.1403 18.7348 15.1839 18.5444Z" fill="#FFFFFE"/>
<path fill-rule="evenodd" clip-rule="evenodd" d="M15.2206 18.902C16.7223 16.5017 18.7088 16.5899 19.3174 16.241C19.9178 15.8967 20.3158 16.1898 19.535 17.235C18.5996 18.4877 16.712 19.2048 15.8426 19.2551C14.9733 19.3055 15.1137 19.0726 15.2206 18.902Z" fill="#FFFFFE"/>
<path fill-rule="evenodd" clip-rule="evenodd" d="M13.2697 21.7519C12.4181 19.0289 14.404 18.0165 14.6163 17.5668C14.8297 17.1143 15.0666 17.1142 15.2073 17.5991C15.7658 19.522 13.9429 21.4288 13.6638 21.7843C13.3846 22.1399 13.3354 21.9621 13.2697 21.7519Z" fill="#FFFFFE"/>
<path fill-rule="evenodd" clip-rule="evenodd" d="M13.6967 22.5114C14.3652 19.4417 16.1918 19.6193 16.6032 19.1989C17.0302 18.7625 17.0864 19.0704 17.0138 19.619C16.8168 21.1057 15.0042 22.1339 14.1729 22.6246C13.9264 22.77 13.5981 22.9639 13.6967 22.5114Z" fill="#FFFFFE"/>
<path fill-rule="evenodd" clip-rule="evenodd" d="M11.9394 26.0827C10.6989 23.2105 12.1693 21.2673 12.6291 20.847C13.089 20.427 13.3836 20.2468 13.2368 20.847C13.0234 21.7198 13.7295 23.9981 12.6456 25.6465C12.2843 26.1957 12.2187 26.729 11.9394 26.0827Z" fill="#FFFFFE"/>
<path fill-rule="evenodd" clip-rule="evenodd" d="M12.6128 26.6483C12.3172 24.887 13.3518 23.287 14.452 22.6569C15.0977 22.2872 15.1202 22.364 15.1089 22.9155C15.076 24.5314 13.516 25.9049 13.0561 26.6483C12.6154 27.3608 12.6433 26.83 12.6128 26.6483Z" fill="#FFFFFE"/>
<path fill-rule="evenodd" clip-rule="evenodd" d="M12.9029 31.2411C13.8044 27.9066 11.8863 26.0061 11.3162 25.6169C10.7463 25.2279 10.3951 25.0761 10.6512 25.7104C11.0236 26.6326 10.6127 29.2348 12.0608 30.8722C12.5434 31.4178 12.6999 31.9915 12.9029 31.2411Z" fill="#FFFFFE"/>
<path fill-rule="evenodd" clip-rule="evenodd" d="M12.6768 30.5232C11.9161 27.6216 13.5942 25.9834 14.0919 25.6491C14.5896 25.3148 14.8955 25.1852 14.6689 25.7345C14.3395 26.5331 14.6791 28.7956 13.4106 30.2082C12.9879 30.679 12.848 31.176 12.6768 30.5232Z" fill="#FFFFFE"/>
<path fill-rule="evenodd" clip-rule="evenodd" d="M13.6225 29.1607C15.008 30.6246 15.05 32.7491 14.4199 34.0085C14.0502 34.7474 13.9808 34.6895 13.6439 34.168C12.6565 32.6395 13.2475 30.4056 13.2087 29.4311C13.1711 28.497 13.4796 29.0097 13.6225 29.1607Z" fill="#FFFFFE"/>
<path fill-rule="evenodd" clip-rule="evenodd" d="M11.3556 31.4801C11.3572 33.4806 12.602 35.127 13.936 35.6251C14.7185 35.9173 14.7153 35.8306 14.6139 35.2207C14.2384 32.9664 12.4926 32.1387 11.8458 31.4002C11.2257 30.6919 11.3555 31.2738 11.3556 31.4801Z" fill="#FFFFFE"/>
<path fill-rule="evenodd" clip-rule="evenodd" d="M16.1106 37.4587C13.8772 35.4549 15.0596 34.0329 14.9611 32.7239C14.9081 32.0201 15.1996 32.2048 15.4536 32.4492C16.8989 33.8388 16.9521 36.3066 16.6526 37.2646C16.5211 37.6848 16.3194 37.6459 16.1106 37.4587Z" fill="#FFFFFE"/>
<path fill-rule="evenodd" clip-rule="evenodd" d="M13.1073 36.1503C13.8405 38.3637 15.8203 39.7452 17.4785 39.8241C18.4515 39.8705 18.4164 39.7755 18.081 39.1366C16.8414 36.7744 14.6065 36.4767 13.6205 35.8882C12.6752 35.324 13.0316 35.9219 13.1073 36.1503Z" fill="#FFFFFE"/>
<path fill-rule="evenodd" clip-rule="evenodd" d="M19.2169 40.326C16.3037 38.8766 16.8898 36.4875 16.3402 35.8802C15.9553 35.4549 16.4298 35.513 16.6626 35.6486C18.3712 36.6451 19.7515 38.192 19.7689 39.8639C19.7756 40.5031 19.7205 40.5766 19.2169 40.326Z" fill="#FFFFFE"/>
<path fill-rule="evenodd" clip-rule="evenodd" d="M23.2225 42.9983C19.5265 43.5666 17.8186 40.8197 16.7354 40.5639C16.1726 40.4309 16.5906 40.2205 16.8594 40.1905C19.3294 39.9147 22.4481 41.0406 23.3955 42.3058C23.781 42.8203 23.7802 42.9127 23.2225 42.9983Z" fill="#FFFFFE"/>
<path fill-rule="evenodd" clip-rule="evenodd" d="M19.4721 38.6806C20.205 41.0773 22.9734 43.0311 25.0599 43.1936C26.0309 43.2694 26.0403 43.1507 25.6823 42.5235C23.9951 39.5683 21.1183 39.0663 20.0952 38.3067C19.2126 37.6516 19.4018 38.4506 19.4721 38.6806Z" fill="#FFFFFE"/>
<path fill-rule="evenodd" clip-rule="evenodd" d="M32.3354 14.1896C31.8427 13.8341 30.0363 14.028 29.7242 13.8016C30.3648 14.335 31.777 13.9471 32.3354 14.1896Z" fill="#7DB63E"/>
<path fill-rule="evenodd" clip-rule="evenodd" d="M36.6543 15.0944C36.2603 14.4157 33.994 13.9632 33.6491 13.3493C34.2569 14.5128 36.0139 14.3511 36.6543 15.0944Z" fill="#7DB63E"/>
<path fill-rule="evenodd" clip-rule="evenodd" d="M36.3094 15.8862C35.4883 15.062 33.5013 15.3853 32.9101 14.9167C34.306 16.1448 35.0615 15.1914 36.3094 15.8862Z" fill="#7DB63E"/>
<path fill-rule="evenodd" clip-rule="evenodd" d="M31.3702 12.291C31.9102 12.571 32.5918 12.8475 32.9101 13.4948C32.5435 13.0057 31.8358 12.802 31.2662 12.382C31.3008 12.3636 31.3576 12.3154 31.3702 12.291Z" fill="#7DB63E"/>
<path fill-rule="evenodd" clip-rule="evenodd" d="M39.7745 17.486C39.446 16.7427 38.28 15.9023 38.165 15.6115C38.5099 16.5973 39.4625 16.8396 39.7745 17.486Z" fill="#7DB63E"/>
<path fill-rule="evenodd" clip-rule="evenodd" d="M40.0864 18.8272C39.052 17.2274 37.459 17.4213 36.8021 16.8073C37.2948 17.389 39.1503 17.7769 40.0864 18.8272Z" fill="#7DB63E"/>
<path fill-rule="evenodd" clip-rule="evenodd" d="M42.4678 21.2673C42.5497 19.5867 41.269 18.9403 41.2196 18.0032C41.1869 19.1181 42.5169 20.6693 42.4678 21.2673Z" fill="#7DB63E"/>
<path fill-rule="evenodd" clip-rule="evenodd" d="M41.8271 22.1722C41.5645 20.7017 39.8236 20.6209 39.5281 19.7483C39.5281 20.5562 41.5645 21.3804 41.8271 22.1722Z" fill="#7DB63E"/>
<path fill-rule="evenodd" clip-rule="evenodd" d="M43.2724 21.3318C44.1919 22.463 43.5352 24.1436 43.9291 25.3716C43.4695 24.4668 43.6992 22.2044 43.2724 21.3318Z" fill="#7DB63E"/>
<path fill-rule="evenodd" clip-rule="evenodd" d="M41.7615 26.0827C43.1409 27.5369 42.5826 29.1851 43.1409 29.896C42.4512 28.8943 42.5497 26.9877 41.7615 26.0827Z" fill="#7DB63E"/>
<path fill-rule="evenodd" clip-rule="evenodd" d="M44.619 26.2766C43.4366 27.5692 44.1592 29.5082 43.5352 30.4132C44.2248 29.6375 44.1263 27.2461 44.619 26.2766Z" fill="#7DB63E"/>
<path fill-rule="evenodd" clip-rule="evenodd" d="M43.1409 26.2766C42.9768 24.7899 41.5645 24.0142 41.4331 23.2064C41.3017 24.0142 42.8124 25.2746 43.1409 26.2766Z" fill="#7DB63E"/>
<path fill-rule="evenodd" clip-rule="evenodd" d="M42.4185 29.8315C42.6482 30.8657 41.7943 33.0957 42.0572 33.7742C41.4988 32.5784 42.5498 30.3485 42.4185 29.8315Z" fill="#7DB63E"/>
<path fill-rule="evenodd" clip-rule="evenodd" d="M44.2248 32.1908C43.6665 34.0329 42.5498 33.9035 42.1885 35.0347C42.4512 33.9682 43.9291 32.9987 44.2248 32.1908Z" fill="#7DB63E"/>
<path fill-rule="evenodd" clip-rule="evenodd" d="M40.5791 33.0632C39.8236 34.2915 40.4478 35.7133 39.8236 36.5859C40.7106 35.7133 40.2506 34.0652 40.5791 33.0632Z" fill="#7DB63E"/>
<path fill-rule="evenodd" clip-rule="evenodd" d="M42.3527 36.4244C41.4659 38.0726 39.6267 37.911 38.8712 39.1068C39.6267 37.6202 41.8929 37.3617 42.3527 36.4244Z" fill="#7DB63E"/>
<path fill-rule="evenodd" clip-rule="evenodd" d="M39.1011 36.2305C37.5247 37.3293 38.0174 38.4604 36.8021 39.6561C38.3129 38.4604 38.1816 37.1031 39.1011 36.2305Z" fill="#7DB63E"/>
<path fill-rule="evenodd" clip-rule="evenodd" d="M38.3785 40.6258C36.8349 40.5611 34.6345 42.5326 33.2878 42.3709C34.6345 42.6618 37.0977 40.8842 38.3785 40.6258Z" fill="#7DB63E"/>
<path fill-rule="evenodd" clip-rule="evenodd" d="M35.8825 38.8482C35.7839 40.3994 31.777 41.369 31.3502 42.4032C31.8427 41.0459 35.3569 40.0439 35.8825 38.8482Z" fill="#7DB63E"/>
<path fill-rule="evenodd" clip-rule="evenodd" d="M26.8601 10.5036C26.3381 10.0789 25.7269 9.71419 25.5533 9.30945C25.6741 9.84453 26.1895 10.2589 26.6848 10.6445C26.752 10.6103 26.8038 10.5346 26.8601 10.5036Z" fill="#7DB63E"/>
<path fill-rule="evenodd" clip-rule="evenodd" d="M25.9828 10.9686C25.1902 10.5804 24.2558 10.5984 23.8619 10.0851C24.1144 10.6022 24.9702 10.8133 25.7253 11.08C25.7995 11.0466 25.9115 10.9875 25.9828 10.9686Z" fill="#7DB63E"/>
<path fill-rule="evenodd" clip-rule="evenodd" d="M23.6647 14.1896C24.1574 13.8341 25.9639 14.028 26.2759 13.8016C25.6353 14.335 24.223 13.9471 23.6647 14.1896Z" fill="#7DB63E"/>
<path fill-rule="evenodd" clip-rule="evenodd" d="M19.3458 15.0944C19.7399 14.4157 22.0062 13.9632 22.3511 13.3493C21.7433 14.5128 19.9863 14.3511 19.3458 15.0944Z" fill="#7DB63E"/>
<path fill-rule="evenodd" clip-rule="evenodd" d="M19.6906 15.8862C20.5117 15.062 22.4987 15.3853 23.09 14.9167C21.6941 16.1448 20.9387 15.1914 19.6906 15.8862Z" fill="#7DB63E"/>
<path fill-rule="evenodd" clip-rule="evenodd" d="M23.09 13.4947C23.5826 12.4928 24.9456 12.3796 25.3068 11.7657C24.765 12.6868 23.5989 12.816 23.09 13.4947Z" fill="#7DB63E"/>
<path fill-rule="evenodd" clip-rule="evenodd" d="M27.0149 12.6221C28.427 11.9758 29.8227 12.5251 30.4961 12.2181C29.6749 12.6382 27.721 12.4443 27.0149 12.6221Z" fill="#7DB63E"/>
<path fill-rule="evenodd" clip-rule="evenodd" d="M16.2256 17.486C16.5542 16.7427 17.7201 15.9023 17.8349 15.6115C17.4901 16.5973 16.5377 16.8396 16.2256 17.486Z" fill="#7DB63E"/>
<path fill-rule="evenodd" clip-rule="evenodd" d="M15.9135 18.8272C16.9483 17.2274 18.5412 17.4213 19.198 16.8073C18.7053 17.389 16.8497 17.7769 15.9135 18.8272Z" fill="#7DB63E"/>
<path fill-rule="evenodd" clip-rule="evenodd" d="M13.5325 21.2673C13.4504 19.5867 14.7311 18.9403 14.7805 18.0032C14.8134 19.1181 13.4831 20.6693 13.5325 21.2673Z" fill="#7DB63E"/>
<path fill-rule="evenodd" clip-rule="evenodd" d="M14.1729 22.1722C14.4356 20.7017 16.1762 20.6209 16.4719 19.7483C16.4719 20.5562 14.4356 21.3804 14.1729 22.1722Z" fill="#7DB63E"/>
<path fill-rule="evenodd" clip-rule="evenodd" d="M12.7278 21.3318C11.8082 22.463 12.465 24.1436 12.0709 25.3716C12.5307 24.4668 12.3008 22.2044 12.7278 21.3318Z" fill="#7DB63E"/>
<path fill-rule="evenodd" clip-rule="evenodd" d="M14.2384 26.0827C12.8591 27.5369 13.4175 29.1851 12.8591 29.896C13.5488 28.8943 13.4504 26.9877 14.2384 26.0827Z" fill="#7DB63E"/>
<path fill-rule="evenodd" clip-rule="evenodd" d="M11.3811 26.2766C12.5636 27.5692 11.8409 29.5082 12.465 30.4132C11.7754 29.6375 11.8738 27.2461 11.3811 26.2766Z" fill="#7DB63E"/>
<path fill-rule="evenodd" clip-rule="evenodd" d="M12.8591 26.2766C13.0234 24.7899 14.4356 24.0142 14.567 23.2064C14.6983 24.0142 13.1876 25.2746 12.8591 26.2766Z" fill="#7DB63E"/>
<path fill-rule="evenodd" clip-rule="evenodd" d="M13.5817 29.8315C13.3518 30.8657 14.2057 33.0957 13.9429 33.7742C14.5012 32.5784 13.4504 30.3485 13.5817 29.8315Z" fill="#7DB63E"/>
<path fill-rule="evenodd" clip-rule="evenodd" d="M11.7754 32.1908C12.3337 34.0329 13.4504 33.9035 13.8115 35.0347C13.5489 33.9682 12.0709 32.9987 11.7754 32.1908Z" fill="#7DB63E"/>
<path fill-rule="evenodd" clip-rule="evenodd" d="M15.4209 33.0632C16.1762 34.2915 15.5524 35.7133 16.1762 36.5859C15.2896 35.7133 15.7494 34.0652 15.4209 33.0632Z" fill="#7DB63E"/>
<path fill-rule="evenodd" clip-rule="evenodd" d="M13.6473 36.4244C14.5341 38.0726 16.3734 37.911 17.1288 39.1068C16.3734 37.6202 14.1073 37.3617 13.6473 36.4244Z" fill="#7DB63E"/>
<path fill-rule="evenodd" clip-rule="evenodd" d="M16.8989 36.2305C18.4754 37.3293 17.9827 38.4604 19.1979 39.6561C17.6872 38.4604 17.8185 37.1031 16.8989 36.2305Z" fill="#7DB63E"/>
<path fill-rule="evenodd" clip-rule="evenodd" d="M17.6215 40.6258C19.1651 40.5611 21.3657 42.5326 22.7122 42.3709C21.3657 42.6618 18.9024 40.8842 17.6215 40.6258Z" fill="#7DB63E"/>
<path fill-rule="evenodd" clip-rule="evenodd" d="M20.1176 38.8482C20.2161 40.3994 24.223 41.369 24.65 42.4032C24.1574 41.0459 20.6432 40.0439 20.1176 38.8482Z" fill="#7DB63E"/>
<path fill-rule="evenodd" clip-rule="evenodd" d="M25.9308 12.6706C26.2429 11.3133 27.7702 11.0545 27.9673 10.2628C27.9015 11.1192 26.0787 12.0726 25.9308 12.6706Z" fill="#7DB63E"/>
<path fill-rule="evenodd" clip-rule="evenodd" d="M30.4467 9.30945C30.2169 10.3275 28.5584 10.9092 28.3285 11.6848C28.4106 10.6344 30.1348 10.0367 30.4467 9.30945Z" fill="#7DB63E"/>
<path fill-rule="evenodd" clip-rule="evenodd" d="M29.1496 11.7334C29.9378 10.473 31.58 10.8122 32.1383 10.0851C31.7278 10.9255 29.7243 10.9577 29.1496 11.7334Z" fill="#7DB63E"/>
<path fill-rule="evenodd" clip-rule="evenodd" d="M26.6207 43.0819C24.3708 44.1969 21.5464 43.8899 19.1651 42.3871C19.0573 42.3189 19.0104 42.4088 19.116 42.6941C19.3787 43.405 19.5758 43.9869 18.8039 45.0856C18.4655 45.5673 18.8495 45.621 19.4115 45.5704C22.2854 45.3118 25.1098 44.6655 26.4565 44.1484L26.6207 43.0819Z" fill="#FFFFFE"/>
<path fill-rule="evenodd" clip-rule="evenodd" d="M26.5549 44.4069C25.6741 44.7451 24.1463 45.1749 22.4158 45.4694C21.7269 45.5865 21.7433 46.0067 22.9915 46.1521C24.2395 46.2976 25.8488 45.4089 26.8342 44.617L26.5549 44.4069Z" fill="#FFFFFE"/>
<path fill-rule="evenodd" clip-rule="evenodd" d="M28 41.9832C28.3118 41.9832 28.8819 41.861 29.4451 41.7731C30.4797 41.6115 29.7242 43.195 28 43.195V43.7283C29.7406 43.7283 31.5636 41.8538 31.186 41.0136C30.643 39.8061 29.1496 40.852 28 40.852C26.8505 40.852 25.3569 39.8061 24.8141 41.0136C24.4365 41.8538 26.2594 43.7283 28 43.7283V43.195C26.2759 43.195 25.5204 41.6115 26.5549 41.7731C27.118 41.861 27.6881 41.9832 28 41.9832Z" fill="#FFFFFE"/>
<path fill-rule="evenodd" clip-rule="evenodd" d="M29.3793 43.0819C31.6293 44.1969 34.4538 43.8899 36.8349 42.3871C36.9429 42.3189 36.9897 42.4088 36.8841 42.6941C36.6215 43.405 36.4244 43.9869 37.1961 45.0856C37.5345 45.5673 37.1506 45.621 36.5886 45.5704C33.7148 45.3118 30.89 44.6655 29.5437 44.1484L29.3793 43.0819Z" fill="#FFFFFE"/>
<path fill-rule="evenodd" clip-rule="evenodd" d="M29.4451 44.4069C30.3261 44.7451 31.8538 45.1749 33.5842 45.4694C34.2731 45.5865 34.2569 46.0067 33.0087 46.1521C31.7606 46.2976 30.1512 45.4089 29.166 44.617L29.4451 44.4069Z" fill="#FFFFFE"/>
<path fill-rule="evenodd" clip-rule="evenodd" d="M28.0821 44.1485C28.118 44.571 28.2166 45.496 28.8046 45.1019C29.5765 44.5848 29.7573 44.1646 29.7573 43.4051C29.7573 42.9365 29.166 42.2417 28 42.2417C26.8342 42.2417 26.2429 42.9365 26.2429 43.4051C26.2429 44.1646 26.4236 44.5848 27.1955 45.1019C27.7835 45.496 27.8471 44.5668 27.9179 44.1485C27.9426 44.003 28.0739 44.0514 28.0821 44.1485Z" fill="#FFFFFE"/>
<path d="M55.5 28C55.5 43.1878 43.1878 55.5 28 55.5C12.8122 55.5 0.5 43.1878 0.5 28C0.5 12.8122 12.8122 0.5 28 0.5C43.1878 0.5 55.5 12.8122 55.5 28Z" stroke="black" stroke-opacity="0.1"/>
</svg>
