<svg width="56" height="56" viewBox="0 0 56 56" fill="none" xmlns="http://www.w3.org/2000/svg">
  <g clip-path="url(#clip0)">
    <path
      d="M1.74155 37.7391C5.69775 48.4014 15.961 56.0001 28 56.0001C40.039 56.0001 50.3022 48.4014 54.2584 37.7391L28 35.3044L1.74155 37.7391Z"
      fill="#F2C55D" />
    <path d="M28 0C15.961 0 5.69775 7.5985 1.74155 18.2609L28 20.6956L54.2584 18.2608C50.3022 7.5985 40.039 0 28 0Z"
      fill="black" />
    <path
      d="M1.74158 18.2609C0.616109 21.2942 0 24.575 0 28C0 31.425 0.616109 34.7058 1.74158 37.7391H54.2585C55.384 34.7058 56 31.425 56 28C56 24.575 55.384 21.2942 54.2584 18.2609H1.74158Z"
      fill="#E74A3F" />
    <path
      d="M55.5 28C55.5 43.1878 43.1878 55.5 28 55.5C12.8122 55.5 0.5 43.1878 0.5 28C0.5 12.8122 12.8122 0.5 28 0.5C43.1878 0.5 55.5 12.8122 55.5 28Z"
      stroke="black" stroke-opacity="0.1" />
  </g>
  <defs>
    <clipPath id="clip0">
      <rect width="56" height="56" fill="white" />
    </clipPath>
  </defs>
</svg>