<svg width="56" height="56" viewBox="0 0 56 56" fill="none" xmlns="http://www.w3.org/2000/svg">
<path d="M28 56C43.464 56 56 43.464 56 28C56 12.536 43.464 0 28 0C12.536 0 0 12.536 0 28C0 43.464 12.536 56 28 56Z" fill="white"/>
<path d="M56 28C56 15.961 48.4015 5.69781 37.7391 1.74161V54.2586C48.4015 50.3023 56 40.0391 56 28Z" fill="#E74A3F"/>
<path d="M0 28C0 40.039 7.59861 50.3022 18.2609 54.2584V1.74161C7.59861 5.69781 0 15.961 0 28Z" fill="#154CCF"/>
<path d="M55.5 28C55.5 43.1878 43.1878 55.5 28 55.5C12.8122 55.5 0.5 43.1878 0.5 28C0.5 12.8122 12.8122 0.5 28 0.5C43.1878 0.5 55.5 12.8122 55.5 28Z" stroke="black" stroke-opacity="0.1"/>
</svg>
