<svg width="56" height="56" viewBox="0 0 56 56" fill="none" xmlns="http://www.w3.org/2000/svg">
<path d="M28 56C43.464 56 56 43.464 56 28C56 12.536 43.464 0 28 0C12.536 0 0 12.536 0 28C0 43.464 12.536 56 28 56Z" fill="white"/>
<path d="M28 40.1739C34.7235 40.1739 40.1739 34.7234 40.1739 28C40.1739 21.2766 34.7235 15.8261 28 15.8261C21.2766 15.8261 15.8261 21.2766 15.8261 28C15.8261 34.7234 21.2766 40.1739 28 40.1739Z" fill="#E74A3F"/>
<path d="M55.5 28C55.5 43.1878 43.1878 55.5 28 55.5C12.8122 55.5 0.5 43.1878 0.5 28C0.5 12.8122 12.8122 0.5 28 0.5C43.1878 0.5 55.5 12.8122 55.5 28Z" stroke="black" stroke-opacity="0.1"/>
</svg>
