<svg width="56" height="56" viewBox="0 0 56 56" fill="none" xmlns="http://www.w3.org/2000/svg">
<g clip-path="url(#clip0)">
<path d="M1.74155 37.7391C5.69775 48.4014 15.961 56.0001 28 56.0001C40.039 56.0001 50.3022 48.4014 54.2584 37.7391L28 35.3044L1.74155 37.7391Z" fill="#F2C55D"/>
<path d="M28 56C43.464 56 56 43.464 56 28C56 12.536 43.464 0 28 0C12.536 0 0 12.536 0 28C0 43.464 12.536 56 28 56Z" fill="white"/>
<path d="M37.7391 28C37.7391 30.4348 33.3787 36.5217 28 36.5217C22.6213 36.5217 18.2609 30.4348 18.2609 28C18.2609 22.6212 22.6213 18.2609 28 18.2609C33.3787 18.2609 37.7391 22.6212 37.7391 28Z" fill="#E74A3F"/>
<path d="M37.7391 28C37.7391 33.3788 33.3787 37.7391 28 37.7391C22.6213 37.7391 18.2609 33.3788 18.2609 28" fill="#154CCF"/>
<path d="M40.912 34.0259L38.3296 36.6083L40.0512 38.33L42.6337 35.7476L40.912 34.0259Z" fill="black"/>
<path d="M36.6073 38.3303L34.0249 40.9127L35.7465 42.6344L38.329 40.0519L36.6073 38.3303Z" fill="black"/>
<path d="M46.0776 39.1898L43.4952 41.7722L45.2168 43.4938L47.7993 40.9114L46.0776 39.1898Z" fill="black"/>
<path d="M41.773 43.4949L39.1906 46.0773L40.9122 47.799L43.4946 45.2165L41.773 43.4949Z" fill="black"/>
<path d="M43.4947 36.608L40.9122 39.1905L42.6339 40.9121L45.2163 38.3297L43.4947 36.608Z" fill="black"/>
<path d="M39.1912 40.9124L36.6087 43.4948L38.3304 45.2165L40.9128 42.6341L39.1912 40.9124Z" fill="black"/>
<path d="M36.6095 12.5045L43.496 19.391L45.2176 17.6694L38.3311 10.7829L36.6095 12.5045Z" fill="black"/>
<path d="M34.0269 15.088L36.6093 17.6704L38.3309 15.9489L35.7484 13.3664L34.0269 15.088Z" fill="black"/>
<path d="M38.3304 19.3917L40.9128 21.9742L42.6344 20.2526L40.0519 17.6702L38.3304 19.3917Z" fill="black"/>
<path d="M39.1895 9.92301L41.7719 12.5054L43.4936 10.7838L40.9112 8.20135L39.1895 9.92301Z" fill="black"/>
<path d="M43.4954 14.2273L46.0778 16.8097L47.7995 15.088L45.217 12.5056L43.4954 14.2273Z" fill="black"/>
<path d="M16.8093 46.0775L9.9228 39.191L8.20116 40.9127L15.0876 47.7992L16.8093 46.0775Z" fill="black"/>
<path d="M19.3912 43.4942L16.8088 40.9118L15.0872 42.6333L17.6697 45.2158L19.3912 43.4942Z" fill="black"/>
<path d="M15.0873 39.1906L12.5049 36.6082L10.7833 38.3298L13.3657 40.9123L15.0873 39.1906Z" fill="black"/>
<path d="M21.974 40.9121L15.0875 34.0256L13.3658 35.7472L20.2524 42.6338L21.974 40.9121Z" fill="black"/>
<path d="M9.92264 16.809L16.8091 9.92255L15.0875 8.2009L8.201 15.0874L9.92264 16.809Z" fill="black"/>
<path d="M12.5042 19.3908L19.3907 12.5043L17.6691 10.7827L10.7826 17.6692L12.5042 19.3908Z" fill="black"/>
<path d="M15.0882 21.9745L21.9747 15.088L20.2532 13.3664L13.3667 20.2529L15.0882 21.9745Z" fill="black"/>
<path d="M55.5 28C55.5 43.1878 43.1878 55.5 28 55.5C12.8122 55.5 0.5 43.1878 0.5 28C0.5 12.8122 12.8122 0.5 28 0.5C43.1878 0.5 55.5 12.8122 55.5 28Z" stroke="black" stroke-opacity="0.1"/>
</g>
<defs>
<clipPath id="clip0">
<rect width="56" height="56" fill="white"/>
</clipPath>
</defs>
</svg>
