<svg width="56" height="56" viewBox="0 0 56 56" fill="none" xmlns="http://www.w3.org/2000/svg">
<g clip-path="url(#clip0)">
<g clip-path="url(#clip1)">
<path d="M28 -0.00012207C12.536 -0.00012207 3.8147e-06 12.5359 3.8147e-06 27.9999C3.8147e-06 43.4639 12.536 55.9999 28 55.9999C43.464 55.9999 56 43.4639 56 27.9999C56 12.5359 43.464 -0.00012207 28 -0.00012207Z" fill="white"/>
<path d="M56 27.9999C56 43.4638 43.4639 55.9999 28 55.9999C12.5361 55.9999 3.8147e-06 43.4638 3.8147e-06 27.9999" fill="#E74A3F"/>
<path d="M55.5 28C55.5 43.1878 43.1878 55.5 28 55.5C12.8121 55.5 0.499969 43.1878 0.499969 28C0.499969 12.8122 12.8121 0.5 28 0.5C43.1878 0.5 55.5 12.8122 55.5 28Z" stroke="black" stroke-opacity="0.1"/>
</g>
</g>
<defs>
<clipPath id="clip0">
<rect width="56" height="56" fill="white"/>
</clipPath>
<clipPath id="clip1">
<rect width="56" height="56" fill="white" transform="translate(56 55.9999) rotate(-180)"/>
</clipPath>
</defs>
</svg>
