<svg width="56" height="56" viewBox="0 0 56 56" fill="none" xmlns="http://www.w3.org/2000/svg">
<path d="M28 56C43.464 56 56 43.464 56 28C56 12.536 43.464 0 28 0C12.536 0 0 12.536 0 28C0 43.464 12.536 56 28 56Z" fill="#449862"/>
<path d="M28 10.9565L51.1304 28L28 45.0435L4.86959 28L28 10.9565Z" fill="#F2C55D"/>
<path d="M18.264 28.1269C18.264 26.6875 18.5 26 19.0504 24.1561C20.3684 23.883 21.7329 23.7392 23.1306 23.7392C28.7872 23.7391 33.9044 26.0904 37.5586 29.8659C37.5 31 36.5 32.5 35.9755 33.5864C32.9615 29.8133 28.3239 27.3913 23.1304 27.3913C21.4369 27.3913 19.8025 27.6489 18.264 28.1269Z" fill="white"/>
<path d="M37.7392 28C37.7392 28.6384 37.6759 29.2617 37.5586 29.8659C33.9044 26.0904 28.7872 23.7391 23.1306 23.7392C21.7329 23.7392 20.3684 23.883 19.0504 24.1561C20.5414 20.6892 23.9867 18.2609 28.0001 18.2609C33.3788 18.2609 37.7392 22.6212 37.7392 28Z" fill="#154CCF"/>
<path d="M18.264 28.1269C19.8025 27.6489 21.4369 27.3913 23.1304 27.3913C28.3239 27.3913 32.9615 29.8133 35.9755 33.5864C34.2138 36.0967 31.2996 37.7392 28 37.7392C22.6638 37.7392 18.3321 33.4469 18.264 28.1269Z" fill="#154CCF"/>
<path d="M55.5 28C55.5 43.1878 43.1878 55.5 28 55.5C12.8122 55.5 0.5 43.1878 0.5 28C0.5 12.8122 12.8122 0.5 28 0.5C43.1878 0.5 55.5 12.8122 55.5 28Z" stroke="black" stroke-opacity="0.1"/>
</svg>
