<svg width="56" height="56" viewBox="0 0 56 56" fill="none" xmlns="http://www.w3.org/2000/svg">
<path d="M28 56C43.464 56 56 43.464 56 28C56 12.536 43.464 0 28 0C12.536 0 0 12.536 0 28C0 43.464 12.536 56 28 56Z" fill="white"/>
<path d="M54.2584 37.7391C55.384 34.7058 56 31.425 56 28C56 24.575 55.384 21.2942 54.2584 18.2609H1.74158C0.616109 21.2942 0 24.575 0 28C0 31.425 0.616109 34.7058 1.74158 37.7391L28 40.1739L54.2584 37.7391Z" fill="#154CCF"/>
<path d="M28 56C40.039 56 50.3022 48.4015 54.2584 37.7391H1.74158C5.69778 48.4015 15.961 56 28 56Z" fill="#E74A3F"/>
<path d="M55.5 28C55.5 43.1878 43.1878 55.5 28 55.5C12.8122 55.5 0.5 43.1878 0.5 28C0.5 12.8122 12.8122 0.5 28 0.5C43.1878 0.5 55.5 12.8122 55.5 28Z" stroke="black" stroke-opacity="0.1"/>
</svg>
