<svg width="56" height="56" viewBox="0 0 56 56" fill="none" xmlns="http://www.w3.org/2000/svg">
<path d="M28 56C43.464 56 56 43.464 56 28C56 12.536 43.464 0 28 0C12.536 0 0 12.536 0 28C0 43.464 12.536 56 28 56Z" fill="#E74A3F"/>
<path d="M26.8535 22.8797L29.1509 26.0456L32.8715 24.8392L30.5705 28.0023L32.8676 31.168L29.1483 29.957L26.8474 33.1202L26.8498 29.2088L23.1304 27.9978L26.8511 26.7914L26.8535 22.8797Z" fill="white"/>
<path d="M20.5836 35.913C16.2134 35.913 12.6706 32.3701 12.6706 28C12.6706 23.6298 16.2134 20.0869 20.5836 20.0869C21.9462 20.0869 23.2283 20.4315 24.3477 21.038C22.5916 19.3206 20.1901 18.2608 17.5402 18.2608C12.1613 18.2608 7.80109 22.6211 7.80109 27.9998C7.80109 33.3786 12.1614 37.7389 17.5402 37.7389C20.1903 37.7389 22.5918 36.679 24.3477 34.9617C23.2283 35.5684 21.9462 35.913 20.5836 35.913Z" fill="white"/>
<path d="M55.5 28C55.5 43.1878 43.1878 55.5 28 55.5C12.8122 55.5 0.5 43.1878 0.5 28C0.5 12.8122 12.8122 0.5 28 0.5C43.1878 0.5 55.5 12.8122 55.5 28Z" stroke="black" stroke-opacity="0.1"/>
</svg>
