<svg width="56" height="56" viewBox="0 0 56 56" fill="none" xmlns="http://www.w3.org/2000/svg">
<path d="M28 56C43.464 56 56 43.464 56 28C56 12.536 43.464 0 28 0C12.536 0 0 12.536 0 28C0 43.464 12.536 56 28 56Z" fill="#E74A3F"/>
<path d="M15.3234 17.0406L17.7406 24.4781H25.5609L19.2391 29.0828L21.6563 36.5203L15.3234 31.9266L8.99063 36.5203L11.4188 29.0828L5.08594 24.4781H12.9063L15.3234 17.0406Z" fill="#F2C55D"/>
<path d="M33.1953 43.3672L31.3468 41.0922L28.6125 42.1531L30.1984 39.6922L28.35 37.4063L31.1828 38.161L32.7796 35.7L32.9328 38.6313L35.7765 39.386L33.0312 40.436L33.1953 43.3672Z" fill="#F2C55D"/>
<path d="M36.8703 36.6953L37.7453 33.8953L35.35 32.2L38.2812 32.1563L39.1453 29.3563L40.0969 32.1344L43.0281 32.1016L40.6766 33.8516L41.6172 36.6297L39.2219 34.9344L36.8703 36.6953Z" fill="#F2C55D"/>
<path d="M41.825 20.5516L40.5344 23.1875L42.6344 25.2328L39.7359 24.8172L38.4453 27.4422L37.9422 24.5547L35.0328 24.1391L37.6359 22.7719L37.1328 19.8735L39.2328 21.9188L41.825 20.5516Z" fill="#F2C55D"/>
<path d="M33.2719 12.5672L33.0531 15.4875L35.7766 16.5922L32.9219 17.2922L32.7141 20.2234L31.1719 17.7297L28.3172 18.4297L30.2094 16.1875L28.6562 13.7047L31.3797 14.8094L33.2719 12.5672Z" fill="#F2C55D"/>
<path d="M55.5 28C55.5 43.1878 43.1878 55.5 28 55.5C12.8122 55.5 0.5 43.1878 0.5 28C0.5 12.8122 12.8122 0.5 28 0.5C43.1878 0.5 55.5 12.8122 55.5 28Z" stroke="black" stroke-opacity="0.1"/>
</svg>
