<?xml version="1.0" encoding="utf-8"?>
<!-- Generator: Adobe Illustrator 24.0.2, SVG Export Plug-In . SVG Version: 6.00 Build 0)  -->
<svg version="1.1" id="Layer_1" xmlns="http://www.w3.org/2000/svg" xmlns:xlink="http://www.w3.org/1999/xlink" x="0px" y="0px"
	 viewBox="0 0 28.5 16" style="enable-background:new 0 0 28.5 16;" xml:space="preserve">
<style type="text/css">
	.st0{fill:#E74A3F;}
	.st1{fill:#F2C55D;}
	.st2{fill:none;stroke:#000000;stroke-opacity:0.1;}
	.st3{fill:#FFFFFF;}
</style>
<path class="st0" d="M26.5,8.2C26.5,8.2,26.5,8.2,26.5,8.2C26.5,8.2,26.5,8.2,26.5,8.2L26.5,8.2z"/>
<path class="st0" d="M8.4,15.5c4,0,7.3-3.3,7.3-7.3s-3.3-7.3-7.3-7.3S1.1,4.2,1.1,8.2S4.4,15.5,8.4,15.5z"/>
<path class="st1" d="M8.4,4.8l0.8,2.4h2.6L9.7,8.7l0.8,2.4L8.4,9.6l-2.1,1.5l0.8-2.4L5,7.2h2.6L8.4,4.8z"/>
<path class="st2" d="M15.6,8.2c0,4-3.2,7.2-7.2,7.2s-7.2-3.2-7.2-7.2s3.2-7.2,7.2-7.2S15.6,4.3,15.6,8.2z"/>
<path class="st0" d="M20.4,15.2c3.9,0,7-3.1,7-7s-3.1-7-7-7s-7,3.1-7,7S16.5,15.2,20.4,15.2z"/>
<path class="st1" d="M20.4,5l0.8,2.3h2.5l-2,1.4l0.8,2.3l-2-1.4l-2,1.4l0.8-2.3l-2-1.4h2.5L20.4,5z"/>
<path class="st3" d="M20.4,15.2c3.9,0,7-3.1,7-7s-3.1-7-7-7s-7,3.1-7,7S16.5,15.2,20.4,15.2z"/>
<path class="st0" d="M13.4,8.2c0-3.9,3.1-7,7-7s7,3.1,7,7"/>
<path class="st2" d="M27.3,8.2c0,3.8-3.1,6.9-6.9,6.9s-6.9-3.1-6.9-6.9s3.1-6.9,6.9-6.9S27.3,4.4,27.3,8.2z"/>
</svg>
