<svg width="56" height="56" viewBox="0 0 56 56" fill="none" xmlns="http://www.w3.org/2000/svg">
<g clip-path="url(#clip0)">
<path d="M28 56C43.464 56 56 43.464 56 28C56 12.536 43.464 0 28 0C12.536 0 0 12.536 0 28C0 43.464 12.536 56 28 56Z" fill="white"/>
<path d="M5.78812 10.953C3.58869 13.8146 1.93024 17.1128 0.964569 20.6958H15.5309L5.78812 10.953Z" fill="#154CCF"/>
<path d="M55.0354 20.6958C54.0697 17.1129 52.4112 13.8147 50.2119 10.9531L40.4693 20.6958H55.0354Z" fill="#154CCF"/>
<path d="M0.964569 35.3045C1.93035 38.8874 3.5888 42.1856 5.78812 45.0471L15.5306 35.3045H0.964569Z" fill="#154CCF"/>
<path d="M45.047 5.78823C42.1854 3.5888 38.8873 1.93035 35.3043 0.964569V15.5308L45.047 5.78823Z" fill="#154CCF"/>
<path d="M10.953 50.2117C13.8146 52.4112 17.1128 54.0696 20.6957 55.0354V40.4693L10.953 50.2117Z" fill="#154CCF"/>
<path d="M20.6956 0.964569C17.1127 1.93035 13.8145 3.5888 10.953 5.78812L20.6956 15.5307V0.964569Z" fill="#154CCF"/>
<path d="M35.3044 55.0354C38.8873 54.0696 42.1856 52.4112 45.047 50.2118L35.3044 40.4693V55.0354Z" fill="#154CCF"/>
<path d="M40.4693 35.3045L50.2119 45.0472C52.4112 42.1857 54.0697 38.8874 55.0354 35.3045H40.4693Z" fill="#154CCF"/>
<path d="M55.763 24.3479H31.6524H31.6523V0.237016C30.4567 0.081375 29.2378 0 28 0C26.762 0 25.5433 0.081375 24.3479 0.237016V24.3476V24.3477H0.237016C0.081375 25.5433 0 26.7622 0 28C0 29.238 0.081375 30.4567 0.237016 31.6521H24.3476H24.3477V55.763C25.5433 55.9186 26.762 56 28 56C29.2378 56 30.4567 55.9187 31.6521 55.763V31.6524V31.6523H55.763C55.9186 30.4567 56 29.238 56 28C56 26.7622 55.9186 25.5433 55.763 24.3479Z" fill="#E74A3F"/>
<path d="M35.3045 35.3045L47.799 47.7991C48.3737 47.2246 48.9219 46.624 49.4449 46.0015L38.7478 35.3044H35.3045V35.3045Z" fill="#E74A3F"/>
<path d="M20.6956 35.3045H20.6954L8.20096 47.799C8.7754 48.3736 9.37597 48.9218 9.99853 49.4448L20.6956 38.7475V35.3045Z" fill="#E74A3F"/>
<path d="M20.6957 20.6958V20.6956L8.20111 8.20096C7.62646 8.7754 7.07827 9.37597 6.55524 9.99854L17.2524 20.6957H20.6957V20.6958Z" fill="#E74A3F"/>
<path d="M35.3045 20.6958L47.7992 8.20104C47.2247 7.62638 46.6241 7.07819 46.0016 6.55527L35.3045 17.2525V20.6958Z" fill="#E74A3F"/>
<path d="M55.5 28C55.5 43.1878 43.1878 55.5 28 55.5C12.8122 55.5 0.5 43.1878 0.5 28C0.5 12.8122 12.8122 0.5 28 0.5C43.1878 0.5 55.5 12.8122 55.5 28Z" stroke="black" stroke-opacity="0.1"/>
</g>
<defs>
<clipPath id="clip0">
<rect width="56" height="56" fill="white"/>
</clipPath>
</defs>
</svg>
