<svg width="56" height="56" viewBox="0 0 56 56" fill="none" xmlns="http://www.w3.org/2000/svg">
<path d="M28 56C43.464 56 56 43.464 56 28C56 12.536 43.464 0 28 0C12.536 0 0 12.536 0 28C0 43.464 12.536 56 28 56Z" fill="#F2C55D"/>
<path d="M52.8056 15C48.1225 6.0824 38.7716 0 28 0C17.2284 0 7.8775 6.0824 3.19438 15H52.8056Z" fill="#E74A3F"/>
<path d="M5.72205e-06 27.9819C1.90735e-06 27.9879 0 27.994 0 28C0 28.006 1.90735e-06 28.0121 5.72205e-06 28.0181V27.9819Z" fill="#E74A3F"/>
<path d="M3.19438 41C7.8775 49.9176 17.2284 56 28 56C38.7716 56 48.1225 49.9176 52.8056 41H3.19438Z" fill="#E74A3F"/>
<path d="M55.5 28C55.5 43.1878 43.1878 55.5 28 55.5C12.8122 55.5 0.5 43.1878 0.5 28C0.5 12.8122 12.8122 0.5 28 0.5C43.1878 0.5 55.5 12.8122 55.5 28Z" stroke="black" stroke-opacity="0.1"/>
</svg>
